<svg width="24" height="24" viewBox="0 0 24 24" fill="none" xmlns="http://www.w3.org/2000/svg">
<path d="M4.44522 4.00322L5.42074 3.35257C6.33483 2.74294 7.56809 2.94085 8.30248 3.81507L9.76407 5.55475C10.401 6.31292 10.5009 7.39296 10.0112 8.22493L8.64821 10.5402C9.08407 11.5617 9.75988 12.4959 10.6756 13.3428C11.5914 14.1897 12.6054 14.8184 13.7179 15.2288L15.7701 13.8228C16.548 13.2899 17.586 13.3411 18.3459 13.9501L20.116 15.3688C20.9994 16.0766 21.2581 17.332 20.7216 18.3056L20.1465 19.3489C19.5742 20.3874 18.4985 21.0163 17.3227 20.9997C14.5468 20.9605 11.5134 19.3317 8.22236 16.113C4.92662 12.8897 3.1882 9.84775 3.00704 6.98713C2.93082 5.78337 3.47792 4.64828 4.44522 4.00322Z" fill="black"/>
</svg>
