<svg width="24" height="24" viewBox="0 0 24 24" fill="none" xmlns="http://www.w3.org/2000/svg">
<path d="M21.9995 10.9718L22 16.251C22 17.713 20.8571 18.9084 19.4147 18.995L19.247 19H4.75368C3.28956 19 2.09241 17.8587 2.00574 16.4184L2.00072 16.251L2 10.9718H21.9995ZM18.26 14.4758H15.7573L15.6555 14.4826C15.289 14.5323 15.0065 14.846 15.0065 15.2256C15.0065 15.6051 15.289 15.9188 15.6555 15.9685L15.7573 15.9753H18.26L18.3619 15.9685C18.7284 15.9188 19.0108 15.6051 19.0108 15.2256C19.0108 14.846 18.7284 14.5323 18.3619 14.4826L18.26 14.4758ZM19.247 5C20.7112 5 21.9083 6.14128 21.995 7.58154L22 7.749L21.9995 9.47237H2L2.00072 7.749C2.00072 6.287 3.14365 5.09156 4.58597 5.00502L4.75368 5H19.247Z" fill="black"/>
</svg>
