<svg width="24" height="24" viewBox="0 0 24 24" fill="none" xmlns="http://www.w3.org/2000/svg">
<path d="M8.96745 3.00562C10.2171 2.95953 11.461 3.1976 12.6054 3.7019C13.7499 4.2062 14.7651 4.96358 15.5749 5.91704C16.2149 6.67054 16.7133 7.53102 17.0487 8.45673H17.458C18.6902 8.45754 19.8875 8.86905 20.8599 9.62614C21.8323 10.3832 22.5249 11.4427 22.8287 12.6373C23.1325 13.8319 23.0302 15.0937 22.5379 16.2237C22.0455 17.3537 21.1912 18.2876 20.1095 18.8778C19.6247 19.1424 19.0172 18.9638 18.7527 18.479C18.4881 17.9942 18.6667 17.3867 19.1515 17.1222C19.843 16.7449 20.3894 16.1477 20.7043 15.4248C21.0193 14.7019 21.0848 13.8946 20.8904 13.1302C20.696 12.3659 20.2529 11.6883 19.6312 11.2042C19.0096 10.7202 18.2447 10.4572 17.4573 10.4567H16.3126C15.8567 10.4567 15.4584 10.1483 15.3444 9.70682C15.107 8.78786 14.6646 7.93479 14.0505 7.21172C13.4364 6.48866 12.6666 5.91441 11.7989 5.5321C10.9313 5.14978 9.98843 4.96932 9.04116 5.00426C8.09388 5.03919 7.16681 5.28861 6.32962 5.7338C5.49243 6.179 4.76689 6.80841 4.20759 7.57477C3.64828 8.34113 3.26979 9.2245 3.10063 10.1585C2.93146 11.0924 2.97603 12.0526 3.23099 12.9668C3.48594 13.8811 3.94463 14.7255 4.57249 15.4366C4.93802 15.8506 4.89873 16.4826 4.48472 16.8481C4.07071 17.2136 3.43876 17.1743 3.07323 16.7603C2.24531 15.8226 1.6406 14.7093 1.3045 13.5041C0.968402 12.2989 0.909649 11.0332 1.13265 9.80201C1.35564 8.57084 1.8546 7.40623 2.59207 6.39574C3.32954 5.38525 4.28634 4.55517 5.39059 3.96795C6.49484 3.38074 7.71778 3.0517 8.96745 3.00562Z" fill="black"/>
<path d="M11 18.5858L8.70711 16.2929C8.31658 15.9024 7.68342 15.9024 7.29289 16.2929C6.90237 16.6834 6.90237 17.3166 7.29289 17.7071L11.2919 21.7061C11.2944 21.7086 11.2969 21.7111 11.2995 21.7136C11.4799 21.8907 11.7272 22 12 22C12.1356 22 12.2649 21.973 12.3828 21.9241C12.498 21.8764 12.6062 21.8063 12.7005 21.7136C12.7031 21.7111 12.7056 21.7086 12.7081 21.7061L16.7071 17.7071C17.0976 17.3166 17.0976 16.6834 16.7071 16.2929C16.3166 15.9024 15.6834 15.9024 15.2929 16.2929L13 18.5858L13 13C13 12.4477 12.5523 12 12 12C11.4477 12 11 12.4477 11 13L11 18.5858Z" fill="black"/>
</svg>
