<svg width="24" height="24" viewBox="0 0 24 24" fill="none" xmlns="http://www.w3.org/2000/svg">
<path d="M7.72013 17.0133L7.72791 17.0193C8.94925 17.9703 10.4507 18.4909 11.9986 18.5L12.0014 18.5C13.5493 18.4909 15.0508 17.9703 16.2721 17.0193L16.2797 17.0131C16.4673 16.8545 16.5938 16.6356 16.6374 16.3939C16.6805 16.1549 16.6401 15.9085 16.523 15.696C16.4709 15.5887 16.396 15.4939 16.3035 15.4183C16.2088 15.3409 16.0979 15.2857 15.979 15.2566C15.8601 15.2275 15.7363 15.2253 15.6165 15.2502C15.4967 15.2751 15.3839 15.3265 15.2865 15.4005L15.2832 15.4031C14.3475 16.1401 13.1911 16.5409 12 16.5409C10.8089 16.5409 9.6525 16.1401 8.71685 15.4031L8.71351 15.4005C8.61608 15.3265 8.50334 15.2751 8.38353 15.2502C8.26372 15.2253 8.13985 15.2275 8.02098 15.2566C7.90211 15.2857 7.79124 15.3409 7.69647 15.4183C7.604 15.4939 7.52913 15.5887 7.47705 15.696C7.35993 15.9085 7.31945 16.1549 7.36258 16.3939C7.40621 16.6356 7.53256 16.8547 7.72013 17.0133Z" fill="black"/>
<path d="M6.53181 10.4988C6.71552 10.6825 6.96469 10.7857 7.22449 10.7857C7.48429 10.7857 7.73346 10.6825 7.91717 10.4988C8.10087 10.3151 8.20408 10.0659 8.20408 9.80611V7.96937C8.20408 7.70957 8.10087 7.46041 7.91717 7.2767C7.73346 7.09299 7.48429 6.98978 7.22449 6.98978C6.96469 6.98978 6.71552 7.09299 6.53181 7.2767C6.3481 7.46041 6.2449 7.70957 6.2449 7.96937V9.80611C6.2449 10.0659 6.3481 10.3151 6.53181 10.4988Z" fill="black"/>
<path d="M16.0828 10.4988C16.2665 10.6825 16.5157 10.7857 16.7755 10.7857C17.0353 10.7857 17.2845 10.6825 17.4682 10.4988C17.6519 10.3151 17.7551 10.0659 17.7551 9.80611V7.96937C17.7551 7.70957 17.6519 7.46041 17.4682 7.2767C17.2845 7.09299 17.0353 6.98978 16.7755 6.98978C16.5157 6.98978 16.2665 7.09299 16.0828 7.2767C15.8991 7.46041 15.7959 7.70957 15.7959 7.96937V9.80611C15.7959 10.0659 15.8991 10.3151 16.0828 10.4988Z" fill="black"/>
<path d="M10.2053 14.1723C10.389 14.356 10.6382 14.4592 10.898 14.4592C11.5475 14.4592 12.1704 14.2012 12.6296 13.7419C13.0889 13.2826 13.3469 12.6597 13.3469 12.0102V7.96937C13.3469 7.70957 13.2437 7.46041 13.06 7.2767C12.8763 7.09299 12.6272 6.98978 12.3673 6.98978C12.1075 6.98978 11.8584 7.09299 11.6747 7.2767C11.491 7.46041 11.3878 7.70957 11.3878 7.96937V12.0102C11.3878 12.1401 11.3362 12.2647 11.2443 12.3565C11.1524 12.4484 11.0279 12.5 10.898 12.5C10.6382 12.5 10.389 12.6032 10.2053 12.7869C10.0216 12.9706 9.91837 13.2198 9.91837 13.4796C9.91837 13.7394 10.0216 13.9885 10.2053 14.1723Z" fill="black"/>
<path d="M0 15.6735C0 18.4621 0.650385 20.5579 2.04622 21.9538C3.44205 23.3496 5.53794 24 8.32653 24C8.58633 24 8.8355 23.8968 9.01921 23.7131C9.20292 23.5294 9.30612 23.2802 9.30612 23.0204C9.30612 22.7606 9.20292 22.5114 9.01921 22.3277C8.8355 22.144 8.58633 22.0408 8.32653 22.0408C5.9606 22.0408 4.38951 21.584 3.40276 20.5972C2.41601 19.6105 1.95918 18.0394 1.95918 15.6735C1.95918 15.4137 1.85598 15.1645 1.67227 14.9808C1.48856 14.7971 1.2394 14.6939 0.979592 14.6939C0.719788 14.6939 0.470625 14.7971 0.286916 14.9808C0.103207 15.1645 0 15.4137 0 15.6735Z" fill="black"/>
<path d="M22.3277 9.01921C22.5114 9.20292 22.7606 9.30612 23.0204 9.30612C23.2802 9.30612 23.5294 9.20292 23.7131 9.01921C23.8968 8.8355 24 8.58633 24 8.32653C24 5.53794 23.3496 3.44205 21.9538 2.04622C20.5579 0.650385 18.4621 0 15.6735 0C15.4137 0 15.1645 0.103207 14.9808 0.286916C14.7971 0.470625 14.6939 0.719788 14.6939 0.979592C14.6939 1.2394 14.7971 1.48856 14.9808 1.67227C15.1645 1.85598 15.4137 1.95918 15.6735 1.95918C18.0394 1.95918 19.6105 2.41601 20.5972 3.40276C21.584 4.38951 22.0408 5.9606 22.0408 8.32653C22.0408 8.58633 22.144 8.8355 22.3277 9.01921Z" fill="black"/>
<path d="M0.286916 9.01921C0.470625 9.20292 0.719788 9.30612 0.979592 9.30612C1.2394 9.30612 1.48856 9.20292 1.67227 9.01921C1.85598 8.8355 1.95918 8.58633 1.95918 8.32653C1.95918 5.9606 2.41601 4.38951 3.40276 3.40276C4.38951 2.41601 5.9606 1.95918 8.32653 1.95918C8.58633 1.95918 8.8355 1.85598 9.01921 1.67227C9.20292 1.48856 9.30612 1.2394 9.30612 0.979592C9.30612 0.719788 9.20292 0.470625 9.01921 0.286916C8.8355 0.103207 8.58633 0 8.32653 0C5.53794 0 3.44205 0.650385 2.04622 2.04622C0.650385 3.44205 0 5.53794 0 8.32653C0 8.58633 0.103207 8.8355 0.286916 9.01921Z" fill="black"/>
<path d="M14.9808 23.7131C15.1645 23.8968 15.4137 24 15.6735 24C18.4621 24 20.5579 23.3496 21.9538 21.9538C23.3496 20.5579 24 18.4621 24 15.6735C24 15.4137 23.8968 15.1645 23.7131 14.9808C23.5294 14.7971 23.2802 14.6939 23.0204 14.6939C22.7606 14.6939 22.5114 14.7971 22.3277 14.9808C22.144 15.1645 22.0408 15.4137 22.0408 15.6735C22.0408 18.0394 21.584 19.6105 20.5972 20.5972C19.6105 21.584 18.0394 22.0408 15.6735 22.0408C15.4137 22.0408 15.1645 22.144 14.9808 22.3277C14.7971 22.5114 14.6939 22.7606 14.6939 23.0204C14.6939 23.2802 14.7971 23.5294 14.9808 23.7131Z" fill="black"/>
</svg>
