<svg width="24" height="24" viewBox="0 0 24 24" fill="none" xmlns="http://www.w3.org/2000/svg">
<path d="M17.7758 9.74981H12.5508V11.7187C12.5508 13.1145 11.4405 14.2502 10.0758 14.2502C8.71108 14.2502 7.60077 13.1145 7.60077 11.7187V7.44337L5.36984 8.81457C4.7064 9.2189 4.30078 9.95373 4.30078 10.7413V12.4043L1.55078 14.0287C1.02485 14.3381 0.842659 15.0272 1.1486 15.5651L3.89859 20.4382C4.20109 20.9761 4.87484 21.159 5.40078 20.8496L8.95514 18.7506H13.6508C14.8642 18.7506 15.8508 17.7415 15.8508 16.5004H16.4008C17.0092 16.5004 17.5008 15.9976 17.5008 15.3753V13.1251H17.7758C18.2329 13.1251 18.6008 12.7489 18.6008 12.2813V10.5936C18.6008 10.126 18.2329 9.74981 17.7758 9.74981ZM22.8529 8.43485L20.1029 3.56179C19.8004 3.02385 19.1267 2.84102 18.6008 3.15042L15.0464 5.24943H11.5333C11.1208 5.24943 10.7186 5.36897 10.368 5.59047L9.21639 6.3253C8.89327 6.52923 8.70077 6.89137 8.70077 7.27812V11.7187C8.70077 12.4957 9.31608 13.1251 10.0758 13.1251C10.8355 13.1251 11.4508 12.4957 11.4508 11.7187V8.62471H17.7758C18.8379 8.62471 19.7008 9.50721 19.7008 10.5936V11.5957L22.4507 9.97131C22.9767 9.6584 23.1554 8.97279 22.8529 8.43485Z" fill="black"/>
</svg>
