<svg width="24" height="24" viewBox="0 0 24 24" fill="none" xmlns="http://www.w3.org/2000/svg">
<path d="M2 3C0.895431 3 0 3.89543 0 5V5.5H24V5C24 3.89543 23.1046 3 22 3H2Z" fill="black"/>
<path fill-rule="evenodd" clip-rule="evenodd" d="M0 7H24V19C24 20.1046 23.1046 21 22 21H2C0.89543 21 0 20.1046 0 19V7ZM8.9609 12.5C8.9609 13.8807 7.84162 15 6.4609 15C5.08019 15 3.9609 13.8807 3.9609 12.5C3.9609 11.1193 5.08019 10 6.4609 10C7.84162 10 8.9609 11.1193 8.9609 12.5ZM6.4609 16C3.3498 16 2.214 17.1852 2 18.502C1.95571 18.7746 2.18476 19 2.4609 19H10.4609C10.737 19 10.9661 18.7746 10.9218 18.502C10.7078 17.1852 9.57201 16 6.4609 16ZM13 10.75C13 10.3358 13.3358 10 13.75 10H20.25C20.6642 10 21 10.3358 21 10.75C21 11.1642 20.6642 11.5 20.25 11.5H13.75C13.3358 11.5 13 11.1642 13 10.75ZM13 13.75C13 13.3358 13.3358 13 13.75 13H20.25C20.6642 13 21 13.3358 21 13.75C21 14.1642 20.6642 14.5 20.25 14.5H13.75C13.3358 14.5 13 14.1642 13 13.75ZM13.75 16C13.3358 16 13 16.3358 13 16.75C13 17.1642 13.3358 17.5 13.75 17.5H20.25C20.6642 17.5 21 17.1642 21 16.75C21 16.3358 20.6642 16 20.25 16H13.75Z" fill="black"/>
</svg>
