<svg width="24" height="24" viewBox="0 0 24 24" fill="none" xmlns="http://www.w3.org/2000/svg">
<path d="M11.9996 1.99896C17.5233 1.99896 22.0011 6.4768 22.0011 12.0005C22.0011 17.5242 17.5233 22.0021 11.9996 22.0021C6.47589 22.0021 1.99805 17.5242 1.99805 12.0005C1.99805 6.4768 6.47589 1.99896 11.9996 1.99896ZM11.9958 10.2496C11.483 10.2499 11.0605 10.6362 11.0031 11.1336L10.9964 11.2502L11 16.7518L11.0068 16.8684C11.0649 17.3657 11.4879 17.7515 12.0007 17.7511C12.5135 17.7508 12.936 17.3645 12.9934 16.8671L13 16.7505L12.9964 11.2489L12.9896 11.1323C12.9316 10.635 12.5086 10.2492 11.9958 10.2496ZM12 6.49999C11.3089 6.49999 10.7485 7.06031 10.7485 7.75151C10.7485 8.44271 11.3089 9.00303 12 9.00303C12.6912 9.00303 13.2516 8.44271 13.2516 7.75151C13.2516 7.06031 12.6912 6.49999 12 6.49999Z" fill="black"/>
</svg>
