<svg width="24" height="24" viewBox="0 0 24 24" fill="none" xmlns="http://www.w3.org/2000/svg">
<path d="M22 3.81818C22 4.82234 21.186 5.63636 20.1818 5.63636C19.9611 5.63636 19.7495 5.59703 19.5538 5.52499L16.5192 8.05386C16.5365 8.15453 16.5455 8.25803 16.5455 8.36364C16.5455 9.36779 15.7314 10.1818 14.7273 10.1818C13.7597 10.1818 12.9686 9.42598 12.9123 8.47252L10.2748 7.15375C9.98746 7.34385 9.64302 7.45455 9.27273 7.45455C8.98321 7.45455 8.7095 7.38688 8.46655 7.2665L5.63266 9.15575C5.63512 9.19443 5.63636 9.23343 5.63636 9.27273C5.63636 10.2769 4.82234 11.0909 3.81818 11.0909C2.81403 11.0909 2 10.2769 2 9.27273C2 8.26857 2.81403 7.45455 3.81818 7.45455C4.10776 7.45455 4.38152 7.52224 4.62451 7.64267L7.45826 5.75351C7.4558 5.71478 7.45455 5.67572 7.45455 5.63636C7.45455 4.63221 8.26857 3.81818 9.27273 3.81818C10.2403 3.81818 11.0314 4.57399 11.0877 5.52743L13.7253 6.84622C14.0126 6.65614 14.357 6.54545 14.7273 6.54545C14.9481 6.54545 15.1597 6.58481 15.3554 6.65689L18.39 4.12814C18.3727 4.02741 18.3636 3.92385 18.3636 3.81818C18.3636 2.81403 19.1777 2 20.1818 2C21.186 2 22 2.81403 22 3.81818Z" fill="black"/>
<path d="M22 10.1818V22H18.3636V10.1818C18.3636 9.68 18.7709 9.27273 19.2727 9.27273H21.0909C21.5927 9.27273 22 9.68 22 10.1818Z" fill="black"/>
<path d="M16.5455 22H12.9091V13.8182C12.9091 13.3164 13.3164 12.9091 13.8182 12.9091H15.6364C16.1382 12.9091 16.5455 13.3164 16.5455 13.8182V22Z" fill="black"/>
<path d="M7.45455 22H11.0909V12C11.0909 11.4982 10.6836 11.0909 10.1818 11.0909H8.36364C7.86182 11.0909 7.45455 11.4982 7.45455 12V22Z" fill="black"/>
<path d="M5.63636 22H2V15.6364C2 15.1345 2.40727 14.7273 2.90909 14.7273H4.72727C5.22909 14.7273 5.63636 15.1345 5.63636 15.6364V22Z" fill="black"/>
</svg>
