<svg width="24" height="24" viewBox="0 0 24 24" fill="none" xmlns="http://www.w3.org/2000/svg">
<path fill-rule="evenodd" clip-rule="evenodd" d="M2.70711 12.7929L6.5 16.5858L16.7929 6.29289C17.1834 5.90237 17.8166 5.90237 18.2071 6.29289C18.5976 6.68342 18.5976 7.31658 18.2071 7.70711L7.20711 18.7071C6.81658 19.0976 6.18342 19.0976 5.79289 18.7071L1.29289 14.2071C0.90237 13.8166 0.90237 13.1834 1.29289 12.7929C1.68342 12.4024 2.31658 12.4024 2.70711 12.7929ZM15 16C14.4477 16 14 16.4477 14 17C14 17.5523 14.4477 18 15 18H22C22.5523 18 23 17.5523 23 17C23 16.4477 22.5523 16 22 16H15ZM17 13C17 12.4477 17.4477 12 18 12H22C22.5523 12 23 12.4477 23 13C23 13.5523 22.5523 14 22 14H18C17.4477 14 17 13.5523 17 13ZM21 8C20.4477 8 20 8.44772 20 9C20 9.55228 20.4477 10 21 10H22C22.5523 10 23 9.55228 23 9C23 8.44772 22.5523 8 22 8H21Z" fill="black"/>
</svg>
