<svg width="24" height="24" viewBox="0 0 24 24" fill="none" xmlns="http://www.w3.org/2000/svg">
<path d="M16.2495 2C16.6292 2 16.943 2.28215 16.9927 2.64823L16.9995 2.75L16.999 3.499L17.7481 3.49986C18.9905 3.50029 19.9977 4.50734 19.9981 5.7499L19.999 16H16.2448L16.0908 16.0052C14.9732 16.0808 14.0794 16.9724 14.0005 18.089L13.9948 18.25V22.0046H5.75327C4.51081 22.0044 3.50358 20.9972 3.50326 19.7547L3.50195 5.7502C3.50163 4.50751 4.50891 3.49986 5.7516 3.49986L6.49895 3.499L6.49952 2.75C6.49952 2.33579 6.8353 2 7.24952 2C7.62921 2 7.94301 2.28215 7.99267 2.64823L7.99952 2.75L7.99895 3.499H11.001L11.0015 2.75C11.0015 2.33579 11.3372 2 11.7515 2C12.1312 2 12.4449 2.28215 12.4946 2.64823L12.5015 2.75L12.501 3.499H15.499L15.4995 2.75C15.4995 2.33579 15.8353 2 16.2495 2ZM19.559 17.5L15.494 21.565L15.4948 18.25L15.5017 18.1482C15.5468 17.8154 15.8103 17.552 16.1431 17.5068L16.2448 17.5H19.559ZM11.2479 16H7.2497L7.14793 16.0068C6.78185 16.0565 6.4997 16.3703 6.4997 16.75C6.4997 17.1297 6.78185 17.4435 7.14793 17.4932L7.2497 17.5H11.2479L11.3497 17.4932C11.7158 17.4435 11.9979 17.1297 11.9979 16.75C11.9979 16.3703 11.7158 16.0565 11.3497 16.0068L11.2479 16ZM16.2479 12H7.2497L7.14793 12.0068C6.78185 12.0565 6.4997 12.3703 6.4997 12.75C6.4997 13.1297 6.78185 13.4435 7.14793 13.4932L7.2497 13.5H16.2479L16.3497 13.4932C16.7158 13.4435 16.9979 13.1297 16.9979 12.75C16.9979 12.3703 16.7158 12.0565 16.3497 12.0068L16.2479 12ZM16.2479 8H7.2497L7.14793 8.00685C6.78185 8.05651 6.4997 8.3703 6.4997 8.75C6.4997 9.1297 6.78185 9.44349 7.14793 9.49315L7.2497 9.5H16.2479L16.3497 9.49315C16.7158 9.44349 16.9979 9.1297 16.9979 8.75C16.9979 8.3703 16.7158 8.05651 16.3497 8.00685L16.2479 8Z" fill="black"/>
</svg>
