<svg width="24" height="24" viewBox="0 0 24 24" fill="none" xmlns="http://www.w3.org/2000/svg">
<path fill-rule="evenodd" clip-rule="evenodd" d="M18.9643 4.45715H11.8197C11.6027 4.45784 11.3904 4.39444 11.2097 4.275L9.93558 3.4285C9.51368 3.14818 9.01733 2.99902 8.50979 3H5.03168C4.35122 3.00073 3.69884 3.26962 3.21768 3.74768C2.73652 4.22574 2.46588 4.87392 2.46515 5.55V6.64286H21.5308C21.5308 5.23672 20.3795 4.45715 18.9643 4.45715ZM19.3724 10.659C20.4017 11.7229 21.519 12.3594 22.7361 12.5794L22.993 9.98715V9.9744C23.0172 9.67381 22.9786 9.3715 22.8795 9.08647C22.7804 8.80144 22.623 8.53987 22.4173 8.31819C22.2115 8.09652 21.9618 7.91955 21.6839 7.79841C21.4059 7.67727 21.1058 7.61458 20.8023 7.61429H3.19865C2.89506 7.61446 2.5948 7.67705 2.31676 7.79814C2.03871 7.91922 1.7889 8.09617 1.58304 8.31786C1.37718 8.53955 1.21973 8.80116 1.1206 9.08625C1.02146 9.37135 0.982791 9.67374 1.00701 9.9744V9.98715L1.74672 17.4887C1.75695 18.1577 2.03141 18.796 2.51093 19.2657C2.99046 19.7355 3.63661 19.9992 4.31004 20H14.5192C14.0521 19.0778 13.7963 18.0112 13.7558 16.8046L13.75 16.4597V13.2083C13.75 12.9092 13.9851 12.6667 14.275 12.6667C15.8807 12.6667 17.3243 12.0047 18.6296 10.6586C18.8348 10.4469 19.1675 10.4472 19.3724 10.659ZM22.6 13.6667C21.3751 13.6667 20.2758 13.1576 19.2837 12.1223C19.1276 11.9594 18.8741 11.9592 18.7178 12.122C17.7233 13.1575 16.6234 13.6667 15.4 13.6667C15.1791 13.6667 15 13.8532 15 14.0833V16.5844L15.0044 16.8497C15.0889 19.3868 16.3984 21.1192 18.8735 21.9786C18.9556 22.0071 19.0444 22.0071 19.1265 21.9786C21.687 21.0896 23 19.2663 23 16.5844V14.0833L22.9919 13.9994C22.9546 13.8095 22.7933 13.6667 22.6 13.6667Z" fill="black"/>
</svg>
