<svg width="24" height="24" viewBox="0 0 24 24" fill="none" xmlns="http://www.w3.org/2000/svg">
<path d="M14 2V6.75249C14 6.87084 13.9178 6.96998 13.8073 6.99589L13.75 7.00249H7.75C7.63165 7.00249 7.53251 6.92026 7.5066 6.80981L7.5 6.75249V2H14ZM17.2587 14.0401C17.3968 14.0401 17.5087 14.152 17.5087 14.2901L17.508 21.5H6.499L6.5 14.2901C6.5 14.152 6.61193 14.0401 6.75 14.0401H17.2587ZM15.6365 2C15.9123 2 16.179 2.09114 16.396 2.25716L21.65 6.75C21.8968 6.98584 22 7.31787 22 7.65921V19.25C22 20.4926 20.9926 21.5 19.75 21.5H19.008L19.0087 14.2901C19.0087 13.3236 18.2252 12.5401 17.2587 12.5401H6.75C5.7835 12.5401 5 13.3236 5 14.2901L4.999 21.5H4.25C3.00736 21.5 2 20.4926 2 19.25V4.25C2 3.00736 3.00736 2 4.25 2H6V6.75249C6 7.67066 6.70711 8.42368 7.60647 8.49669L7.75 8.50249H13.75C14.6682 8.50249 15.4212 7.79538 15.4942 6.89602L15.5 6.75249V2H15.6365Z" fill="black"/>
</svg>
