<svg width="24" height="24" viewBox="0 0 24 24" fill="none" xmlns="http://www.w3.org/2000/svg">
<path fill-rule="evenodd" clip-rule="evenodd" d="M4.00987 21.1701C4.39317 18.9753 6.42756 17 12 17C17.5724 17 19.6068 18.9753 19.9901 21.1701C20.0695 21.6244 19.6592 22 19.1646 22H4.83541C4.3408 22 3.93053 21.6244 4.00987 21.1701Z" fill="black"/>
<path d="M16 8C16 11 14.2091 14 12 14C9.79086 14 8 11 8 8C8 5.79086 9.79086 4 12 4C14.2091 4 16 5.79086 16 8Z" fill="black"/>
<path fill-rule="evenodd" clip-rule="evenodd" d="M7.75 3.5C7.05964 3.5 6.5 4.05964 6.5 4.75V5.25C6.5 5.66421 6.16421 6 5.75 6C5.33579 6 5 5.66421 5 5.25V4.75C5 3.23122 6.23122 2 7.75 2H8.25C8.66421 2 9 2.33579 9 2.75C9 3.16421 8.66421 3.5 8.25 3.5H7.75Z" fill="black"/>
<path fill-rule="evenodd" clip-rule="evenodd" d="M17.5 4.75C17.5 4.05964 16.9404 3.5 16.25 3.5H15.75C15.3358 3.5 15 3.16421 15 2.75C15 2.33579 15.3358 2 15.75 2L16.25 2C17.7688 2 19 3.23122 19 4.75V5.25C19 5.66421 18.6642 6 18.25 6C17.8358 6 17.5 5.66421 17.5 5.25V4.75Z" fill="black"/>
<path fill-rule="evenodd" clip-rule="evenodd" d="M16.25 14.5C16.9404 14.5 17.5 13.9404 17.5 13.25V12.75C17.5 12.3358 17.8358 12 18.25 12C18.6642 12 19 12.3358 19 12.75V13.25C19 14.7688 17.7688 16 16.25 16H15.75C15.3358 16 15 15.6642 15 15.25C15 14.8358 15.3358 14.5 15.75 14.5H16.25Z" fill="black"/>
<path fill-rule="evenodd" clip-rule="evenodd" d="M6.5 13.25C6.5 13.9404 7.05964 14.5 7.75 14.5H8.25C8.66421 14.5 9 14.8358 9 15.25C9 15.6642 8.66421 16 8.25 16H7.75C6.23122 16 5 14.7688 5 13.25V12.75C5 12.3358 5.33579 12 5.75 12C6.16421 12 6.5 12.3358 6.5 12.75V13.25Z" fill="black"/>
</svg>
