<svg width="24" height="24" viewBox="0 0 24 24" fill="none" xmlns="http://www.w3.org/2000/svg">
<path fill-rule="evenodd" clip-rule="evenodd" d="M3.75 5C3.33579 5 3 5.33579 3 5.75V11C3 16.0012 5.95756 19.6757 11.7251 21.9478C11.9018 22.0174 12.0982 22.0174 12.2749 21.9478C18.0424 19.6757 21 16.0012 21 11V5.75C21 5.33579 20.6642 5 20.25 5C17.5866 5 14.992 4.05652 12.45 2.15C12.1833 1.95 11.8167 1.95 11.55 2.15C9.00797 4.05652 6.41341 5 3.75 5ZM10.75 13.4393L15.2197 8.96967C15.5126 8.67678 15.9874 8.67678 16.2803 8.96967C16.5732 9.26256 16.5732 9.73744 16.2803 10.0303L11.2803 15.0303C10.9874 15.3232 10.5126 15.3232 10.2197 15.0303L7.71967 12.5303C7.42678 12.2374 7.42678 11.7626 7.71967 11.4697C8.01256 11.1768 8.48744 11.1768 8.78033 11.4697L10.75 13.4393Z" fill="black"/>
</svg>
