<svg width="24" height="24" viewBox="0 0 24 24" fill="none" xmlns="http://www.w3.org/2000/svg">
<path d="M14.7508 16.5C16.0594 16.5 16.569 17.0825 16.9561 18.3743L17.024 18.6115C17.2065 19.2688 17.3156 19.4657 17.5366 19.5568C17.7957 19.6636 17.9685 19.6484 18.24 19.5088L18.387 19.4265C18.4398 19.3947 18.4974 19.3581 18.5626 19.3151L19.2258 18.8637C19.8417 18.4586 20.3951 18.1908 21.0689 18.0224C21.4708 17.9219 21.878 18.1663 21.9784 18.5681C22.0789 18.9699 21.8346 19.3771 21.4327 19.4776C21.0257 19.5794 20.6745 19.7334 20.2874 19.967L19.9888 20.1578L19.5098 20.4858C19.28 20.6421 19.1066 20.7499 18.9259 20.8428C18.283 21.1733 17.656 21.2284 16.965 20.9436C16.2202 20.6367 15.9199 20.1637 15.6387 19.222L15.4829 18.6802C15.3016 18.0908 15.178 18 14.7508 18C14.4415 18 14.1212 18.1548 13.6825 18.523L13.4977 18.6839L12.5768 19.5592C11.1687 20.8828 9.96823 21.5255 8.24947 21.5255C6.56318 21.5255 5.10478 21.2715 3.88052 20.7567L6.82811 19.9524C7.27538 20.0011 7.74909 20.0255 8.24947 20.0255C9.43222 20.0255 10.2812 19.6106 11.3357 18.6629L11.5939 18.4242L12.1257 17.9131C12.3624 17.6863 12.5397 17.5238 12.7182 17.3739C13.4018 16.8003 14.0232 16.5 14.7508 16.5ZM19.0312 2.96966C20.4286 4.36712 20.4286 6.63286 19.0312 8.03032L18.743 8.31904C19.8944 9.72039 19.8528 11.2055 18.7819 12.2796L16.7807 14.2808C16.4875 14.5734 16.0127 14.573 15.72 14.2799C15.4274 13.9867 15.4278 13.5118 15.721 13.2192L17.7197 11.2204C18.2047 10.734 18.2608 10.1301 17.6799 9.38207L9.06283 17.9987C8.78596 18.2755 8.44162 18.4754 8.06386 18.5784L2.94817 19.9736C2.38829 20.1263 1.87456 19.6125 2.02726 19.0527L3.42244 13.937C3.52547 13.5592 3.7253 13.2149 4.00217 12.938L13.9705 2.96966C15.368 1.5722 17.6337 1.5722 19.0312 2.96966Z" fill="black"/>
</svg>
