<svg width="24" height="24" viewBox="0 0 24 24" fill="none" xmlns="http://www.w3.org/2000/svg">
<path fill-rule="evenodd" clip-rule="evenodd" d="M21.75 10.5C22.1642 10.5 22.5 10.1642 22.5 9.75V6C22.5 5.17157 21.8284 4.5 21 4.5H3C2.17157 4.5 1.5 5.17157 1.5 6V9.75C1.5 10.1642 1.83579 10.5 2.25 10.5C3.07843 10.5 3.75 11.1716 3.75 12C3.75 12.8284 3.07843 13.5 2.25 13.5C1.83579 13.5 1.5 13.8358 1.5 14.25V18C1.5 18.8284 2.17157 19.5 3 19.5H21C21.8284 19.5 22.5 18.8284 22.5 18V14.25C22.5 13.8358 22.1642 13.5 21.75 13.5C20.9216 13.5 20.25 12.8284 20.25 12C20.25 11.1716 20.9216 10.5 21.75 10.5ZM21 14.9025V18H15.75V16.5C15.75 16.0858 15.4142 15.75 15 15.75C14.5858 15.75 14.25 16.0858 14.25 16.5V18H3V14.9025C4.32033 14.5574 5.24139 13.3647 5.24139 12C5.24139 10.6353 4.32033 9.44259 3 9.0975V6H14.25V7.5C14.25 7.91421 14.5858 8.25 15 8.25C15.4142 8.25 15.75 7.91421 15.75 7.5V6H21V9.0975C19.6797 9.44259 18.7586 10.6353 18.7586 12C18.7586 13.3647 19.6797 14.5574 21 14.9025ZM14.25 10.5C14.25 10.0858 14.5858 9.75 15 9.75C15.4142 9.75 15.75 10.0858 15.75 10.5V13.5C15.75 13.9142 15.4142 14.25 15 14.25C14.5858 14.25 14.25 13.9142 14.25 13.5V10.5Z" fill="black"/>
</svg>
