<svg width="24" height="24" viewBox="0 0 24 24" fill="none" xmlns="http://www.w3.org/2000/svg">
<path d="M19.9238 10.4479C20.0788 10.089 19.9928 9.67622 19.7068 9.4017L15.4139 5.28109C15.0235 4.9063 14.3904 4.9063 14 5.28109C13.6095 5.65588 13.6095 6.26352 14 6.63831L16.5859 9.12047H5.00017C4.44789 9.12047 4.00019 9.5502 4.00019 10.0803C4.00019 10.6104 4.44789 11.0402 5.00017 11.0402H18.9998C19.4038 11.0402 19.7698 10.806 19.9238 10.4479ZM4.07619 13.5521C3.92119 13.911 4.00719 14.3238 4.29318 14.5983L8.58608 18.7189C8.97654 19.0937 9.60959 19.0937 10 18.7189C10.3905 18.3441 10.3905 17.7365 10 17.3617L7.41411 14.8795H18.9998C19.5521 14.8795 19.9998 14.4498 19.9998 13.9197C19.9998 13.3896 19.5521 12.9598 18.9998 12.9598H5.00017C4.59617 12.9598 4.23018 13.1931 4.07619 13.5521Z" fill="black"/>
</svg>
