<svg width="24" height="24" viewBox="0 0 24 24" fill="none" xmlns="http://www.w3.org/2000/svg">
<path d="M11.9996 1.99896C17.5233 1.99896 22.0011 6.4768 22.0011 12.0005C22.0011 17.5242 17.5233 22.0021 11.9996 22.0021C6.47589 22.0021 1.99805 17.5242 1.99805 12.0005C1.99805 6.4768 6.47589 1.99896 11.9996 1.99896ZM11.9996 3.49896C7.30432 3.49896 3.49805 7.30523 3.49805 12.0005C3.49805 16.6958 7.30432 20.5021 11.9996 20.5021C16.6949 20.5021 20.5011 16.6958 20.5011 12.0005C20.5011 7.30523 16.6949 3.49896 11.9996 3.49896ZM11.9962 5.99896C15.3088 5.99896 17.9943 8.68441 17.9943 11.9971C17.9943 15.3097 15.3088 17.9952 11.9962 17.9952C8.68349 17.9952 5.99805 15.3097 5.99805 11.9971C5.99805 8.68441 8.68349 5.99896 11.9962 5.99896Z" fill="#2AAC7E"/>
</svg>
