<svg width="21" height="21" viewBox="0 0 21 21" fill="none" xmlns="http://www.w3.org/2000/svg">
<path d="M10.9996 -0.0010376C16.5233 -0.0010376 21.0011 4.4768 21.0011 10.0005C21.0011 15.5242 16.5233 20.0021 10.9996 20.0021C5.47589 20.0021 0.998047 15.5242 0.998047 10.0005C0.998047 4.4768 5.47589 -0.0010376 10.9996 -0.0010376ZM10.9958 8.24959C10.483 8.24989 10.0605 8.63619 10.0031 9.13359L9.9964 9.25019L10 14.7518L10.0068 14.8684C10.0649 15.3657 10.4879 15.7515 11.0007 15.7511C11.5135 15.7508 11.936 15.3645 11.9934 14.8671L12 14.7505L11.9964 9.24889L11.9896 9.13229C11.9316 8.63499 11.5086 8.24919 10.9958 8.24959ZM11 4.49999C10.3089 4.49999 9.7485 5.06031 9.7485 5.75151C9.7485 6.44271 10.3089 7.00303 11 7.00303C11.6912 7.00303 12.2516 6.44271 12.2516 5.75151C12.2516 5.06031 11.6912 4.49999 11 4.49999Z" fill="black"/>
</svg>
