<svg width="20" height="20" viewBox="0 0 20 20" fill="none" xmlns="http://www.w3.org/2000/svg">
<path d="M9.99996 3.62906V4.16724L11.4544 4.16725C11.7704 4.16725 12.0317 4.40185 12.0735 4.70651L12.0794 4.79122L12.085 8.33392H10.835L10.8304 5.41725L9.99996 5.41724L10.0004 9.17133L10.835 9.17058L10.8358 9.16725H12.0866L12.0858 9.17058H16.2016L14.7663 7.73412C14.5445 7.51219 14.5243 7.16497 14.7059 6.92032L14.7665 6.85023C14.9884 6.62838 15.3355 6.60827 15.5802 6.78986L15.6503 6.85038L18.1475 9.34842C18.3691 9.57017 18.3895 9.917 18.2083 10.1616L18.1479 10.2318L15.6507 12.7346C15.407 12.9789 15.0112 12.9794 14.7669 12.7356C14.5447 12.514 14.5241 12.1667 14.7054 11.9219L14.7659 11.8518L16.1933 10.4206L10.0004 10.4213L9.99996 14.1681L10.8449 14.1684L10.8391 11.2506H12.09L12.096 14.7924C12.0965 15.1092 11.8612 15.3713 11.5558 15.4128L11.471 15.4184L9.99996 15.4181V16.0423C9.99996 16.4309 9.64896 16.7253 9.26629 16.6578L2.18292 15.4067C1.8843 15.3539 1.66663 15.0944 1.66663 14.7912V4.79225C1.66663 4.48616 1.8883 4.22511 2.19035 4.17551L9.27371 3.01232C9.65421 2.94983 9.99996 3.24345 9.99996 3.62906ZM7.08508 9.58392C6.62386 9.58392 6.24996 9.95783 6.24996 10.419C6.24996 10.8802 6.62386 11.2542 7.08508 11.2542C7.54631 11.2542 7.92021 10.8802 7.92021 10.419C7.92021 9.95783 7.54631 9.58392 7.08508 9.58392Z" fill="#8E8E93"/>
</svg>
