<svg width="36" height="36" viewBox="0 0 36 36" fill="none" xmlns="http://www.w3.org/2000/svg">
<path d="M26.6636 14.6247H18.8261V17.5781C18.8261 19.6718 17.1607 21.3753 15.1137 21.3753C13.0666 21.3753 11.4012 19.6718 11.4012 17.5781V11.165L8.05476 13.2219C7.0596 13.8284 6.45117 14.9306 6.45117 16.1119V18.6065L2.32617 21.043C1.53727 21.5071 1.26399 22.5408 1.72289 23.3477L5.84789 30.6573C6.30164 31.4642 7.31226 31.7385 8.10116 31.2744L13.4327 28.1259H20.4761C22.2963 28.1259 23.7761 26.6123 23.7761 24.7506H24.6011C25.5138 24.7506 26.2511 23.9964 26.2511 23.0629V19.6876H26.6636C27.3494 19.6876 27.9011 19.1233 27.9011 18.4219V15.8904C27.9011 15.189 27.3494 14.6247 26.6636 14.6247ZM34.2794 12.6523L30.1544 5.34268C29.7007 4.53578 28.69 4.26153 27.9011 4.72564L22.5696 7.87414H17.2999C16.6811 7.87414 16.0779 8.05346 15.5519 8.38571L13.8246 9.48795C13.3399 9.79384 13.0512 10.337 13.0512 10.9172V17.5781C13.0512 18.7436 13.9741 19.6876 15.1137 19.6876C16.2532 19.6876 17.1761 18.7436 17.1761 17.5781V12.9371H26.6636C28.2569 12.9371 29.5511 14.2608 29.5511 15.8904V17.3935L33.6761 14.957C34.465 14.4876 34.7331 13.4592 34.2794 12.6523Z" fill="#2AAC7E"/>
</svg>
