<svg width="16" height="16" viewBox="0 0 16 16" fill="none" xmlns="http://www.w3.org/2000/svg">
<path d="M7.99967 1.3335C11.6815 1.3335 14.6663 4.31826 14.6663 8.00016C14.6663 11.682 11.6815 14.6668 7.99967 14.6668C4.31777 14.6668 1.33301 11.682 1.33301 8.00016C1.33301 4.31826 4.31777 1.3335 7.99967 1.3335ZM10.1461 5.97994L7.16634 8.9597L5.85323 7.64663C5.65797 7.45136 5.34138 7.45136 5.14612 7.64663C4.95086 7.8419 4.95086 8.15843 5.14612 8.3537L6.81281 10.0204C7.00807 10.2156 7.32461 10.2156 7.51987 10.0204L10.8532 6.68703C11.0485 6.49179 11.0485 6.1752 10.8532 5.97994C10.6579 5.78468 10.3414 5.78468 10.1461 5.97994Z" fill="#34C759"/>
</svg>
