<svg width="56" height="56" viewBox="0 0 56 56" fill="none" xmlns="http://www.w3.org/2000/svg">
<circle opacity="0.03" cx="28" cy="28" r="28" fill="#FF3B30"/>
<circle opacity="0.03" cx="27.9996" cy="28.0001" r="22.4" fill="#FF3B30"/>
<path d="M27.9998 14C31.0925 14 33.5998 16.5072 33.5998 19.6V22.4H37.0998C38.2596 22.4 39.1998 23.3402 39.1998 24.5V39.9C39.1998 41.0598 38.2596 42 37.0998 42H18.8998C17.74 42 16.7998 41.0598 16.7998 39.9V24.5C16.7998 23.3402 17.74 22.4 18.8998 22.4H22.3998V19.6C22.3998 16.5072 24.907 14 27.9998 14ZM27.9999 30.1C26.8402 30.1 25.8999 31.0402 25.8999 32.2C25.8999 33.3598 26.8402 34.3 27.9999 34.3C29.1598 34.3 30.0999 33.3598 30.0999 32.2C30.0999 31.0402 29.1598 30.1 27.9999 30.1ZM27.9998 16.8C26.4534 16.8 25.1998 18.0536 25.1998 19.6V22.4H30.7998V19.6C30.7998 18.0536 29.5462 16.8 27.9998 16.8Z" fill="#FF3B30"/>
</svg>
