<svg width="16" height="16" viewBox="0 0 16 16" fill="none" xmlns="http://www.w3.org/2000/svg">
<path d="M8.00016 1.33398C11.682 1.33398 14.6668 4.31875 14.6668 8.00065C14.6668 11.6825 11.682 14.6673 8.00016 14.6673C4.31826 14.6673 1.3335 11.6825 1.3335 8.00065C1.3335 4.31875 4.31826 1.33398 8.00016 1.33398ZM10.1466 5.98043L7.16683 8.96018L5.85372 7.64712C5.65846 7.45185 5.34187 7.45185 5.14661 7.64712C4.95135 7.84238 4.95135 8.15892 5.14661 8.35418L6.8133 10.0209C7.00856 10.2161 7.3251 10.2161 7.52036 10.0209L10.8537 6.68752C11.049 6.49228 11.049 6.17569 10.8537 5.98043C10.6584 5.78517 10.3419 5.78517 10.1466 5.98043Z" fill="white"/>
</svg>
