<svg width="16" height="16" viewBox="0 0 16 16" fill="none" xmlns="http://www.w3.org/2000/svg">
<path d="M8.0001 1.33331C4.31844 1.33331 1.33344 4.31831 1.33344 7.99998C1.33344 11.6816 4.31844 14.6666 8.0001 14.6666C11.6818 14.6666 14.6668 11.6816 14.6668 7.99998C14.6668 4.31831 11.6818 1.33331 8.0001 1.33331ZM8.55566 11.2539V12.4444H7.44455V11.2572C6.26121 11.0994 5.51621 10.4111 5.47455 9.39109H6.74177C6.80232 9.89886 7.31455 10.2244 8.05232 10.2244C8.73399 10.2244 9.21566 9.89442 9.21566 9.42164C9.21566 9.0222 8.90344 8.7922 8.1351 8.6272L7.31899 8.45387C6.17732 8.21498 5.61788 7.62053 5.61788 6.66553C5.61788 5.64886 6.32566 4.93442 7.44455 4.75498V3.55553H8.55566V4.75331C9.64232 4.92942 10.3757 5.63331 10.4095 6.59609H9.17677C9.11621 6.10109 8.65566 5.77164 8.02232 5.77164C7.36677 5.77164 6.93288 6.07553 6.93288 6.55275C6.93288 6.93887 7.23232 7.16053 7.96566 7.31664L8.72066 7.4772C9.97955 7.7422 10.5218 8.28442 10.5218 9.25664C10.5223 10.3578 9.78566 11.0855 8.55566 11.2539Z" fill="#3A3A3C"/>
</svg>
