<svg width="16" height="16" viewBox="0 0 16 16" fill="none" xmlns="http://www.w3.org/2000/svg">
<path d="M9.83331 10C10.4776 10 11 10.5223 11 11.1667L10.9992 11.8081C11.077 13.2675 9.99191 14.006 8.04451 14.006C6.10522 14.006 4.99998 13.2795 4.99998 11.8333V11.1667C4.99998 10.5223 5.52231 10 6.16665 10H9.83331ZM2.49998 6.66667L5.41731 6.66673C5.36248 6.8798 5.33331 7.10313 5.33331 7.33333C5.33331 8.077 5.63775 8.7496 6.12878 9.23327L6.23682 9.334L6.16665 9.33333C5.96575 9.33333 5.7724 9.36567 5.59151 9.42533C5.01501 9.61567 4.56508 10.0843 4.40079 10.6721L4.37784 10.6727C2.43855 10.6727 1.33331 9.94613 1.33331 8.5V7.83333C1.33331 7.189 1.85565 6.66667 2.49998 6.66667ZM13.5 6.66667C14.1443 6.66667 14.6666 7.189 14.6666 7.83333L14.6659 8.47473C14.7437 9.93413 13.6586 10.6727 11.7112 10.6727L11.599 10.6715C11.4397 10.1023 11.0125 9.64487 10.4619 9.44393C10.305 9.38667 10.1382 9.35027 9.96465 9.33793L9.83331 9.33333L9.76311 9.334C10.3172 8.84533 10.6666 8.13013 10.6666 7.33333C10.6666 7.10313 10.6375 6.8798 10.5826 6.66673L13.5 6.66667ZM7.99998 5.33333C9.10458 5.33333 9.99998 6.22877 9.99998 7.33333C9.99998 8.43793 9.10458 9.33333 7.99998 9.33333C6.89538 9.33333 5.99998 8.43793 5.99998 7.33333C5.99998 6.22877 6.89538 5.33333 7.99998 5.33333ZM4.33331 2C5.43788 2 6.33331 2.89543 6.33331 4C6.33331 5.10457 5.43788 6 4.33331 6C3.22875 6 2.33331 5.10457 2.33331 4C2.33331 2.89543 3.22875 2 4.33331 2ZM11.6666 2C12.7712 2 13.6666 2.89543 13.6666 4C13.6666 5.10457 12.7712 6 11.6666 6C10.562 6 9.66665 5.10457 9.66665 4C9.66665 2.89543 10.562 2 11.6666 2Z" fill="#3A3A3C"/>
</svg>
