<svg width="56" height="56" viewBox="0 0 56 56" fill="none" xmlns="http://www.w3.org/2000/svg">
<circle opacity="0.03" cx="28" cy="28" r="28" fill="#FF3B30"/>
<circle opacity="0.03" cx="28.0001" cy="27.9996" r="22.4" fill="#FF3B30"/>
<path d="M41.3002 19.5988C41.3002 20.3168 40.7598 20.9085 40.0634 20.9894L39.9002 20.9988H38.7176L36.9937 38.5257C36.7998 40.4965 35.1424 41.9988 33.1621 41.9988H22.8383C20.858 41.9988 19.2006 40.4965 19.0068 38.5257L17.2828 20.9988H16.1002C15.327 20.9988 14.7002 20.372 14.7002 19.5988C14.7002 18.8256 15.327 18.1988 16.1002 18.1988H23.1002C23.1002 15.4926 25.294 13.2988 28.0002 13.2988C30.7064 13.2988 32.9002 15.4926 32.9002 18.1988H39.9002C40.6734 18.1988 41.3002 18.8256 41.3002 19.5988ZM31.1502 24.1488C30.6186 24.1488 30.1793 24.5438 30.1097 25.0563L30.1002 25.1988V34.9988L30.1097 35.1413C30.1793 35.6537 30.6186 36.0488 31.1502 36.0488C31.6818 36.0488 32.1211 35.6537 32.1907 35.1413L32.2002 34.9988V25.1988L32.1907 25.0563C32.1211 24.5438 31.6818 24.1488 31.1502 24.1488ZM24.8502 24.1488C24.3186 24.1488 23.8793 24.5438 23.8098 25.0563L23.8002 25.1988V34.9988L23.8098 35.1413C23.8793 35.6537 24.3186 36.0488 24.8502 36.0488C25.3818 36.0488 25.8211 35.6537 25.8907 35.1413L25.9002 34.9988V25.1988L25.8907 25.0563C25.8211 24.5438 25.3818 24.1488 24.8502 24.1488ZM28.0002 16.0988C26.8404 16.0988 25.9002 17.039 25.9002 18.1988H30.1002C30.1002 17.039 29.16 16.0988 28.0002 16.0988Z" fill="#FF3B30"/>
</svg>
