<svg width="16" height="16" viewBox="0 0 16 16" fill="none" xmlns="http://www.w3.org/2000/svg">
<path d="M8.00016 1.33398C11.682 1.33398 14.6668 4.31875 14.6668 8.00065C14.6668 11.6825 11.682 14.6673 8.00016 14.6673C4.31826 14.6673 1.3335 11.6825 1.3335 8.00065C1.3335 4.31875 4.31826 1.33398 8.00016 1.33398ZM10.3537 5.6471L10.2976 5.59868C10.1236 5.46958 9.88483 5.46799 9.70923 5.5939L9.64663 5.6471L8.00016 7.29332L6.35372 5.6471L6.29764 5.59868C6.12364 5.46958 5.88484 5.46799 5.70924 5.5939L5.64661 5.6471L5.5982 5.70318C5.4691 5.87717 5.4675 6.11598 5.59342 6.29157L5.64661 6.3542L7.29283 8.00065L5.64661 9.64712L5.5982 9.70318C5.4691 9.87718 5.4675 10.116 5.59342 10.2916L5.64661 10.3542L5.70269 10.4026C5.87668 10.5317 6.11549 10.5333 6.29108 10.4074L6.35372 10.3542L8.00016 8.70798L9.64663 10.3542L9.7027 10.4026C9.8767 10.5317 10.1155 10.5333 10.2911 10.4074L10.3537 10.3542L10.4021 10.2981C10.5312 10.1241 10.5328 9.88532 10.4069 9.70972L10.3537 9.64712L8.7075 8.00065L10.3537 6.3542L10.4021 6.29812C10.5312 6.12413 10.5328 5.88532 10.4069 5.70973L10.3537 5.6471L10.2976 5.59868L10.3537 5.6471Z" fill="white"/>
</svg>
