<svg width="16" height="16" viewBox="0 0 16 16" fill="none" xmlns="http://www.w3.org/2000/svg">
<path d="M13.9995 7.89894L14 13.8121C14 14.1092 13.9691 14.217 13.9109 14.3256C13.8529 14.4343 13.7676 14.5195 13.6589 14.5776C13.5503 14.6357 13.4425 14.6667 13.1454 14.6667H10.1879C9.8908 14.6667 9.783 14.6357 9.6744 14.5776C9.56573 14.5195 9.48047 14.4343 9.4224 14.3256C9.36427 14.217 9.33333 14.1092 9.33333 13.8121V10.8546C9.33333 10.5575 9.3024 10.4497 9.24427 10.3411C9.1862 10.2324 9.10093 10.1471 8.99227 10.0891C8.88367 10.0309 8.77587 10 8.47873 10H7.52127C7.22413 10 7.11633 10.0309 7.00773 10.0891C6.89907 10.1471 6.8138 10.2324 6.75573 10.3411C6.6976 10.4497 6.66667 10.5575 6.66667 10.8546V13.8121C6.66667 14.1092 6.63573 14.217 6.57762 14.3256C6.51952 14.4343 6.43426 14.5195 6.32561 14.5776C6.21697 14.6357 6.10921 14.6667 5.81204 14.6667H2.85463C2.55745 14.6667 2.44969 14.6357 2.34105 14.5776C2.23241 14.5195 2.14715 14.4343 2.08905 14.3256C2.03094 14.217 2 14.1092 2 13.8121V8.03101C2 7.47341 2.02417 7.27761 2.08069 7.06214C2.13721 6.84661 2.22607 6.65689 2.35544 6.47551L2.42192 6.38678C2.53794 6.24024 2.69113 6.09074 3.04813 5.79323L7.43833 2.13475C7.64333 1.9639 7.7328 1.91973 7.8396 1.89068C7.94633 1.86162 8.05367 1.86162 8.1604 1.89068C8.2672 1.91973 8.35667 1.9639 8.56167 2.13475L12.9519 5.79323C13.3803 6.15024 13.5152 6.29413 13.6445 6.47551C13.7739 6.65689 13.8628 6.84661 13.9193 7.06214C13.9711 7.25968 13.9957 7.44061 13.9995 7.89894Z" fill="white"/>
</svg>
