<svg width="16" height="16" viewBox="0 0 16 16" fill="none" xmlns="http://www.w3.org/2000/svg">
<path d="M14.6665 2.54544C14.6665 3.21488 14.1238 3.75756 13.4543 3.75756C13.3072 3.75756 13.1662 3.73134 13.0357 3.68331L11.0126 5.36923C11.0241 5.43634 11.0301 5.50534 11.0301 5.57574C11.0301 6.24518 10.4874 6.78787 9.81798 6.78787C9.17291 6.78787 8.64554 6.28397 8.60799 5.64833L6.84963 4.76915C6.6581 4.89589 6.42848 4.96968 6.18161 4.96968C5.9886 4.96968 5.80613 4.92457 5.64416 4.84432L3.7549 6.10382C3.75654 6.12961 3.75737 6.15561 3.75737 6.18181C3.75737 6.85124 3.21469 7.39393 2.54525 7.39393C1.87581 7.39393 1.33313 6.85124 1.33313 6.18181C1.33313 5.51237 1.87581 4.96968 2.54525 4.96968C2.7383 4.96968 2.92081 5.01481 3.0828 5.0951L4.97197 3.83566C4.97033 3.80984 4.96949 3.7838 4.96949 3.75756C4.96949 3.08813 5.51218 2.54544 6.18161 2.54544C6.82667 2.54544 7.35404 3.04932 7.3916 3.68494L9.14999 4.56414C9.34151 4.43741 9.57113 4.36362 9.81798 4.36362C9.96517 4.36362 10.1062 4.38986 10.2368 4.43791L12.2598 2.75208C12.2482 2.68493 12.2422 2.61589 12.2422 2.54544C12.2422 1.87601 12.7849 1.33332 13.4543 1.33332C14.1238 1.33332 14.6665 1.87601 14.6665 2.54544Z" fill="#3A3A3C"/>
<path d="M14.6665 6.78787V14.6667H12.2422V6.78787C12.2422 6.45332 12.5137 6.18181 12.8483 6.18181H14.0604C14.3949 6.18181 14.6665 6.45332 14.6665 6.78787Z" fill="#3A3A3C"/>
<path d="M11.0301 14.6667H8.60586V9.21211C8.60586 8.87756 8.87737 8.60605 9.21192 8.60605H10.424C10.7586 8.60605 11.0301 8.87756 11.0301 9.21211V14.6667Z" fill="#3A3A3C"/>
<path d="M4.96949 14.6667H7.39374V7.99999C7.39374 7.66544 7.12222 7.39393 6.78767 7.39393H5.57555C5.24101 7.39393 4.96949 7.66544 4.96949 7.99999V14.6667Z" fill="#3A3A3C"/>
<path d="M3.75737 14.6667H1.33313V10.4242C1.33313 10.0897 1.60465 9.81817 1.93919 9.81817H3.15131C3.48586 9.81817 3.75737 10.0897 3.75737 10.4242V14.6667Z" fill="#3A3A3C"/>
</svg>
