<svg width="16" height="16" viewBox="0 0 16 16" fill="none" xmlns="http://www.w3.org/2000/svg">
<path d="M7.99984 1.33398C9.47257 1.33398 10.6665 2.52789 10.6665 4.00065V5.33398H12.3332C12.8854 5.33398 13.3332 5.7817 13.3332 6.33398V13.6673C13.3332 14.2196 12.8854 14.6673 12.3332 14.6673H3.6665C3.11422 14.6673 2.6665 14.2196 2.6665 13.6673V6.33398C2.6665 5.7817 3.11422 5.33398 3.6665 5.33398H5.33317V4.00065C5.33317 2.52789 6.52708 1.33398 7.99984 1.33398ZM7.9999 9.00065C7.44764 9.00065 6.9999 9.44838 6.9999 10.0007C6.9999 10.5529 7.44764 11.0007 7.9999 11.0007C8.55224 11.0007 8.9999 10.5529 8.9999 10.0007C8.9999 9.44838 8.55224 9.00065 7.9999 9.00065ZM7.99984 2.66732C7.26344 2.66732 6.6665 3.26427 6.6665 4.00065V5.33398H9.33317V4.00065C9.33317 3.26427 8.73624 2.66732 7.99984 2.66732Z" fill="white"/>
</svg>
