<svg width="18" height="14" viewBox="0 0 18 14" fill="none" xmlns="http://www.w3.org/2000/svg">
<path d="M8.99996 0.629058V1.16724L10.4544 1.16725C10.7704 1.16725 11.0317 1.40185 11.0735 1.70651L11.0794 1.79122L11.085 5.33392H9.83496L9.83038 2.41725L8.99996 2.41724L9.00038 6.17133L9.83496 6.17058L9.83579 6.16725H11.0866L11.0858 6.17058H15.2016L13.7663 4.73412C13.5445 4.51219 13.5243 4.16497 13.7059 3.92032L13.7665 3.85023C13.9884 3.62838 14.3355 3.60827 14.5802 3.78986L14.6503 3.85038L17.1475 6.34842C17.3691 6.57017 17.3895 6.917 17.2083 7.16158L17.1479 7.23175L14.6507 9.73458C14.407 9.97892 14.0112 9.97942 13.7669 9.73558C13.5447 9.514 13.5241 9.16675 13.7054 8.92192L13.7659 8.85175L15.1933 7.42058L9.00038 7.42133L8.99996 11.1681L9.84488 11.1684L9.83913 8.25058H11.09L11.096 11.7924C11.0965 12.1092 10.8612 12.3713 10.5558 12.4128L10.471 12.4184L8.99996 12.4181V13.0423C8.99996 13.4309 8.64896 13.7253 8.26629 13.6578L1.18292 12.4067C0.884301 12.3539 0.666626 12.0944 0.666626 11.7912V1.79225C0.666626 1.48616 0.888301 1.22511 1.19035 1.17551L8.27371 0.0123167C8.65421 -0.0501667 8.99996 0.24345 8.99996 0.629058ZM6.08508 6.58392C5.62386 6.58392 5.24996 6.95783 5.24996 7.419C5.24996 7.88025 5.62386 8.25417 6.08508 8.25417C6.54631 8.25417 6.92021 7.88025 6.92021 7.419C6.92021 6.95783 6.54631 6.58392 6.08508 6.58392Z" fill="#8E8E93"/>
</svg>
