<svg width="16" height="16" viewBox="0 0 16 16" fill="none" xmlns="http://www.w3.org/2000/svg">
<path d="M6.02774 12.6687H9.97212C9.81299 13.6141 8.99059 14.3343 7.99992 14.3343C7.00925 14.3343 6.18683 13.6141 6.02774 12.6687ZM7.99992 1.33592C10.7613 1.33592 12.9999 3.5745 12.9999 6.33592V9.0016L13.9455 11.1083C13.9821 11.1899 14.001 11.2783 14.001 11.3677C14.001 11.7175 13.7175 12.001 13.3677 12.001H2.63471C2.54552 12.001 2.45734 11.9821 2.37593 11.9457C2.05669 11.8028 1.91374 11.4281 2.05666 11.1089L2.99993 9.00186L2.99999 6.32732L3.00294 6.1607C3.09565 3.47355 5.30384 1.33592 7.99992 1.33592Z" fill="white"/>
<ellipse cx="12.6667" cy="3.33333" rx="2.66667" ry="2.66667" fill="#FF3B30"/>
</svg>
