<svg width="20" height="20" viewBox="0 0 20 20" fill="none" xmlns="http://www.w3.org/2000/svg">
<path d="M10.0002 1.66602C11.8411 1.66602 13.3335 3.1584 13.3335 4.99935V6.66602H15.4168C16.1072 6.66602 16.6668 7.22566 16.6668 7.91602V17.0827C16.6668 17.773 16.1072 18.3327 15.4168 18.3327H4.5835C3.89314 18.3327 3.3335 17.773 3.3335 17.0827V7.91602C3.3335 7.22566 3.89314 6.66602 4.5835 6.66602H6.66683V4.99935C6.66683 3.1584 8.15921 1.66602 10.0002 1.66602ZM10.0002 11.2493C9.30991 11.2493 8.75025 11.809 8.75025 12.4993C8.75025 13.1897 9.30991 13.7493 10.0002 13.7493C10.6907 13.7493 11.2502 13.1897 11.2502 12.4993C11.2502 11.809 10.6907 11.2493 10.0002 11.2493ZM10.0002 3.33268C9.07966 3.33268 8.3335 4.07887 8.3335 4.99935V6.66602H11.6668V4.99935C11.6668 4.07887 10.9207 3.33268 10.0002 3.33268Z" fill="#636366"/>
</svg>
