<svg width="18" height="18" viewBox="0 0 18 18" fill="none" xmlns="http://www.w3.org/2000/svg">
<path d="M2.54069 10.6621L7.43771 10.6619C7.14672 11.0142 6.95899 11.4548 6.92087 11.9376L6.91368 12.1205V15.8705C6.91368 16.4246 7.11035 16.9329 7.43771 17.3291L7.33034 17.3297C4.47953 17.3297 2.37707 16.4363 1.09193 14.6326C0.815301 14.2443 0.666626 13.7795 0.666626 13.3028V12.5362C0.666626 11.5012 1.50568 10.6621 2.54069 10.6621ZM11.2887 8.57885H13.7887C14.328 8.57885 14.7716 8.98868 14.825 9.51402L14.8304 9.62052L14.83 10.6618L15.872 10.6622C16.6775 10.6622 17.3304 11.3151 17.3304 12.1205V15.8705C17.3304 16.6759 16.6775 17.3288 15.872 17.3288H9.20538C8.39996 17.3288 7.74704 16.6759 7.74704 15.8705V12.1205C7.74704 11.3151 8.39996 10.6622 9.20538 10.6622L10.2466 10.6618L10.247 9.62052C10.247 9.08118 10.6569 8.63752 11.1822 8.58418L11.2887 8.57885H13.7887H11.2887ZM13.5804 9.82885H11.497L11.4966 10.6618H13.58L13.5804 9.82885ZM7.33034 0.666016C9.63154 0.666016 11.497 2.5315 11.497 4.83268C11.497 7.13387 9.63154 8.99935 7.33034 8.99935C5.02915 8.99935 3.16368 7.13387 3.16368 4.83268C3.16368 2.5315 5.02915 0.666016 7.33034 0.666016Z" fill="#8E8E93"/>
</svg>
