<svg width="14" height="18" viewBox="0 0 14 18" fill="none" xmlns="http://www.w3.org/2000/svg">
<path d="M11.7954 10.666C12.8305 10.666 13.6695 11.5051 13.6695 12.5401V13.3055C13.6695 13.7832 13.5201 14.2491 13.2423 14.6378C11.954 16.4406 9.85046 17.3337 7.00029 17.3337C4.14946 17.3337 2.04698 16.4402 0.761848 14.6366C0.485214 14.2483 0.336548 13.7834 0.336548 13.3067V12.5401C0.336548 11.5051 1.17559 10.666 2.21061 10.666H11.7954ZM7.00029 0.669922C9.30146 0.669922 11.167 2.53541 11.167 4.83659C11.167 7.13778 9.30146 9.00324 7.00029 9.00324C4.69907 9.00324 2.83359 7.13778 2.83359 4.83659C2.83359 2.53541 4.69907 0.669922 7.00029 0.669922Z" fill="#8E8E93"/>
</svg>
