<svg fill="none" height="36" viewBox="0 0 36 36" width="36" xmlns="http://www.w3.org/2000/svg">
  <path
    d="M6.37332 20.993L15.188 20.9926C14.6642 21.6267 14.3263 22.4199 14.2576 23.2888L14.2447 23.6181V30.3681C14.2447 31.3654 14.5987 32.2803 15.188 32.9936L14.9947 32.9946C9.86323 32.9946 6.07879 31.3864 3.76556 28.1398C3.26762 27.441 3 26.6043 3 25.7463V24.3663C3 22.5033 4.51029 20.993 6.37332 20.993ZM22.1198 17.2431H26.6198C27.5905 17.2431 28.389 17.9808 28.485 18.9264L28.4948 19.1181L28.494 20.9925L30.3698 20.9931C31.8195 20.9931 32.9948 22.1684 32.9948 23.6181V30.3681C32.9948 31.8179 31.8195 32.9931 30.3698 32.9931H18.3698C16.92 32.9931 15.7448 31.8179 15.7448 30.3681V23.6181C15.7448 22.1684 16.92 20.9931 18.3698 20.9931L20.244 20.9925L20.2448 19.1181C20.2448 18.1473 20.9825 17.3487 21.9281 17.2527L22.1198 17.2431H26.6198H22.1198ZM26.2448 19.4931H22.4948L22.494 20.9925H26.244L26.2448 19.4931ZM14.9947 3C19.1369 3 22.4948 6.35787 22.4948 10.5C22.4948 14.6421 19.1369 18 14.9947 18C10.8525 18 7.49469 14.6421 7.49469 10.5C7.49469 6.35787 10.8525 3 14.9947 3Z"
    fill="#2AAC7E"/>
</svg>
