<svg width="20" height="20" viewBox="0 0 20 20" fill="none" xmlns="http://www.w3.org/2000/svg">
<path d="M3.70435 3.33602L4.51728 2.79381C5.27903 2.28578 6.30674 2.45071 6.91874 3.17923L8.13672 4.62896C8.66748 5.26077 8.75076 6.1608 8.34267 6.85411L7.20684 8.78351C7.57006 9.63477 8.13323 10.4132 8.89636 11.119C9.65949 11.8248 10.5045 12.3487 11.4315 12.6906L13.1417 11.519C13.79 11.0749 14.655 11.1176 15.2882 11.6251L16.7634 12.8073C17.4995 13.3972 17.7151 14.4433 17.268 15.2546L16.7888 16.1241C16.3118 16.9895 15.4154 17.5136 14.4356 17.4997C12.1223 17.4671 9.59449 16.1097 6.85197 13.4275C4.10551 10.7414 2.65684 8.20646 2.50586 5.82261C2.44235 4.81947 2.89826 3.87357 3.70435 3.33602Z" fill="#636366"/>
</svg>
