<svg width="20" height="20" viewBox="0 0 20 20" fill="none" xmlns="http://www.w3.org/2000/svg">
<path d="M14.7954 11.666C15.8305 11.666 16.6695 12.5051 16.6695 13.5401V14.3055C16.6695 14.7832 16.5201 15.2491 16.2423 15.6378C14.954 17.4406 12.8505 18.3337 10.0003 18.3337C7.14946 18.3337 5.04698 17.4402 3.76185 15.6366C3.48521 15.2483 3.33655 14.7834 3.33655 14.3067V13.5401C3.33655 12.5051 4.17559 11.666 5.21061 11.666H14.7954ZM10.0003 1.66992C12.3015 1.66992 14.167 3.53541 14.167 5.83659C14.167 8.13778 12.3015 10.0032 10.0003 10.0032C7.69907 10.0032 5.83359 8.13778 5.83359 5.83659C5.83359 3.53541 7.69907 1.66992 10.0003 1.66992Z" fill="#8E8E93"/>
</svg>
