<svg width="20" height="20" viewBox="0 0 20 20" fill="none" xmlns="http://www.w3.org/2000/svg">
<path d="M3.54069 11.6621L8.43771 11.6619C8.14672 12.0142 7.95899 12.4548 7.92087 12.9376L7.91368 13.1205V16.8705C7.91368 17.4246 8.11035 17.9328 8.43771 18.3291L8.33034 18.3297C5.47953 18.3297 3.37707 17.4363 2.09193 15.6326C1.8153 15.2443 1.66663 14.7795 1.66663 14.3028V13.5362C1.66663 12.5012 2.50568 11.6621 3.54069 11.6621ZM12.2887 9.57885H14.7887C15.328 9.57885 15.7716 9.98868 15.825 10.514L15.8304 10.6205L15.83 11.6618L16.872 11.6622C17.6775 11.6622 18.3304 12.3151 18.3304 13.1205V16.8705C18.3304 17.6759 17.6775 18.3288 16.872 18.3288H10.2054C9.39996 18.3288 8.74704 17.6759 8.74704 16.8705V13.1205C8.74704 12.3151 9.39996 11.6622 10.2054 11.6622L11.2466 11.6618L11.247 10.6205C11.247 10.0812 11.6569 9.63752 12.1822 9.58418L12.2887 9.57885H14.7887H12.2887ZM14.5804 10.8288H12.497L12.4966 11.6618H14.58L14.5804 10.8288ZM8.33034 1.66602C10.6315 1.66602 12.497 3.5315 12.497 5.83268C12.497 8.13387 10.6315 9.99935 8.33034 9.99935C6.02915 9.99935 4.16368 8.13387 4.16368 5.83268C4.16368 3.5315 6.02915 1.66602 8.33034 1.66602Z" fill="#8E8E93"/>
</svg>
