<svg width="16" height="16" viewBox="0 0 16 16" fill="none" xmlns="http://www.w3.org/2000/svg">
<path d="M9.3335 1.3335V4.50182C9.3335 4.58072 9.2787 4.64682 9.20503 4.66409L9.16683 4.66849H5.16683C5.08793 4.66849 5.02184 4.61367 5.00456 4.54004L5.00016 4.50182V1.3335H9.3335ZM11.506 9.36023C11.598 9.36023 11.6726 9.43483 11.6726 9.5269L11.6722 14.3335H4.33283L4.3335 9.5269C4.3335 9.43483 4.40812 9.36023 4.50016 9.36023H11.506ZM10.4245 1.3335C10.6084 1.3335 10.7862 1.39426 10.9308 1.50494L14.4335 4.50016C14.598 4.65739 14.6668 4.87874 14.6668 5.1063V12.8335C14.6668 13.6619 13.9952 14.3335 13.1668 14.3335H12.6722L12.6726 9.5269C12.6726 8.88256 12.1503 8.36023 11.506 8.36023H4.50016C3.85583 8.36023 3.3335 8.88256 3.3335 9.5269L3.33283 14.3335H2.8335C2.00507 14.3335 1.3335 13.6619 1.3335 12.8335V2.8335C1.3335 2.00507 2.00507 1.3335 2.8335 1.3335H4.00016V4.50182C4.00016 5.11394 4.47157 5.61595 5.07114 5.66462L5.16683 5.66849H9.16683C9.77896 5.66849 10.281 5.19708 10.3296 4.59751L10.3335 4.50182V1.3335H10.4245Z" fill="white"/>
</svg>
