<svg width="20" height="20" viewBox="0 0 20 20" fill="none" xmlns="http://www.w3.org/2000/svg">
<path d="M8.33325 2.08325C11.785 2.08325 14.5833 4.88147 14.5833 8.33325C14.5833 9.75834 14.1063 11.0721 13.3033 12.1235L17.2558 16.0773C17.5813 16.4028 17.5813 16.9304 17.2558 17.2558C16.9554 17.5563 16.4828 17.5793 16.1558 17.3252L16.0773 17.2558L12.1235 13.3033C11.0721 14.1063 9.75834 14.5833 8.33325 14.5833C4.88147 14.5833 2.08325 11.785 2.08325 8.33325C2.08325 4.88147 4.88147 2.08325 8.33325 2.08325ZM8.33325 3.74992C5.80194 3.74992 3.74992 5.80194 3.74992 8.33325C3.74992 10.8646 5.80194 12.9166 8.33325 12.9166C10.8646 12.9166 12.9166 10.8646 12.9166 8.33325C12.9166 5.80194 10.8646 3.74992 8.33325 3.74992Z" fill="#007AFF"/>
</svg>
