<svg width="16" height="16" viewBox="0 0 16 16" fill="none" xmlns="http://www.w3.org/2000/svg">
<path d="M8.00888 1.50003C8.49815 1.50567 8.98555 1.5622 9.46322 1.66872C9.67168 1.71522 9.82762 1.88904 9.85128 2.10134L9.96475 3.11924C10.0161 3.5866 10.4107 3.94059 10.8812 3.94108C11.0076 3.94128 11.1327 3.91495 11.2496 3.86325L12.1833 3.45307C12.3775 3.36776 12.6044 3.41427 12.7494 3.56911C13.4242 4.28979 13.9267 5.15413 14.2192 6.09708C14.2823 6.30042 14.2097 6.52138 14.0383 6.6477L13.2107 7.25773C12.9746 7.4312 12.8352 7.70673 12.8352 7.99966C12.8352 8.29266 12.9746 8.56813 13.2112 8.74193L14.0396 9.3522C14.211 9.47853 14.2836 9.69953 14.2206 9.90286C13.9282 10.8457 13.4259 11.7099 12.7515 12.4307C12.6066 12.5856 12.3799 12.6322 12.1858 12.5471L11.2482 12.1364C10.98 12.019 10.6719 12.0362 10.4184 12.1827C10.165 12.3292 9.99622 12.5875 9.96402 12.8785L9.85135 13.8963C9.82808 14.1062 9.67548 14.2788 9.47008 14.3277C8.50448 14.5575 7.49842 14.5575 6.53276 14.3277C6.32734 14.2788 6.17476 14.1062 6.15152 13.8963L6.03898 12.88C6.00592 12.5895 5.83696 12.332 5.58368 12.186C5.33041 12.04 5.02287 12.0229 4.75554 12.1396L3.81778 12.5505C3.62355 12.6355 3.39676 12.5889 3.25192 12.434C2.57715 11.7123 2.07486 10.8471 1.78287 9.9032C1.71998 9.69993 1.79264 9.47913 1.96396 9.35286L2.79285 8.74226C3.02894 8.5688 3.16838 8.29333 3.16838 8.00033C3.16838 7.7074 3.02894 7.43186 2.79254 7.2582L1.96418 6.6486C1.7926 6.52233 1.71986 6.30122 1.78298 6.09775C2.07548 5.1548 2.57803 4.29046 3.25282 3.56978C3.3978 3.41494 3.62469 3.36842 3.8189 3.45374L4.75248 3.86384C5.02111 3.98174 5.32994 3.96393 5.58458 3.81516C5.83813 3.66809 6.00692 3.40951 6.03951 3.11846L6.1529 2.10134C6.17658 1.88893 6.33264 1.71506 6.54127 1.66866C7.01948 1.56231 7.50735 1.5058 8.00888 1.50003ZM8.00055 6C6.89595 6 6.00053 6.8954 6.00053 8C6.00053 9.1046 6.89595 10 8.00055 10C9.10508 10 10.0006 9.1046 10.0006 8C10.0006 6.8954 9.10508 6 8.00055 6Z" fill="white"/>
</svg>
