<svg width="16" height="18" viewBox="0 0 16 18" fill="none" xmlns="http://www.w3.org/2000/svg">
<path d="M8.01104 0.875C8.62263 0.88205 9.23188 0.952717 9.82896 1.08587C10.0895 1.14398 10.2845 1.36126 10.314 1.62663L10.4559 2.89901C10.52 3.48322 11.0133 3.9257 11.6014 3.92632C11.7595 3.92657 11.9158 3.89365 12.0619 3.82902L13.229 3.3163C13.4718 3.20966 13.7554 3.2678 13.9366 3.46135C14.7801 4.3622 15.4083 5.44262 15.774 6.62132C15.8528 6.87548 15.762 7.15169 15.5478 7.30958L14.5133 8.07212C14.2181 8.28896 14.0439 8.63338 14.0439 8.99954C14.0439 9.36579 14.2181 9.71012 14.5139 9.92737L15.5494 10.6902C15.7636 10.8481 15.8545 11.1244 15.7756 11.3785C15.4101 12.557 14.7823 13.6374 13.9393 14.5384C13.7582 14.732 13.4748 14.7902 13.2321 14.6839L12.0601 14.1705C11.7249 14.0237 11.3398 14.0452 11.023 14.2283C10.7061 14.4115 10.4952 14.7343 10.455 15.0981L10.3141 16.3704C10.285 16.6327 10.0943 16.8485 9.83754 16.9095C8.63054 17.1968 7.37296 17.1968 6.16588 16.9095C5.90911 16.8485 5.71839 16.6327 5.68934 16.3704L5.54866 15.1C5.50733 14.7369 5.29614 14.415 4.97954 14.2325C4.66295 14.05 4.27853 14.0285 3.94436 14.1745L2.77217 14.688C2.52938 14.7944 2.24588 14.736 2.06484 14.5425C1.22138 13.6404 0.593518 12.5588 0.228527 11.379C0.14991 11.1249 0.240743 10.8489 0.454893 10.691L1.491 9.92779C1.78612 9.71096 1.96042 9.36662 1.96042 9.00037C1.96042 8.63421 1.78612 8.28979 1.49062 8.07271L0.45516 7.31071C0.240685 7.15287 0.149768 6.87648 0.22866 6.62215C0.594293 5.44346 1.22248 4.36303 2.06596 3.46218C2.24718 3.26863 2.5308 3.21049 2.77356 3.31713L3.94054 3.82977C4.27633 3.97713 4.66236 3.95487 4.98067 3.76891C5.2976 3.58508 5.50859 3.26185 5.54933 2.89803L5.69106 1.62663C5.72066 1.36112 5.91574 1.14378 6.17653 1.08578C6.77429 0.95285 7.38413 0.882208 8.01104 0.875ZM8.00063 6.49996C6.61988 6.49996 5.5006 7.61921 5.5006 8.99996C5.5006 10.3807 6.61988 11.5 8.00063 11.5C9.38129 11.5 10.5006 10.3807 10.5006 8.99996C10.5006 7.61921 9.38129 6.49996 8.00063 6.49996Z" fill="#8E8E93"/>
</svg>
