<svg width="16" height="16" viewBox="0 0 16 16" fill="none" xmlns="http://www.w3.org/2000/svg">
<path fill-rule="evenodd" clip-rule="evenodd" d="M2.5 3.33333C2.22386 3.33333 2 3.55719 2 3.83333V7.33333C2 10.6675 3.97171 13.1171 7.81673 14.6319C7.93453 14.6783 8.06547 14.6783 8.18327 14.6319C12.0283 13.1171 14 10.6675 14 7.33333V3.83333C14 3.55719 13.7761 3.33333 13.5 3.33333C11.7244 3.33333 9.99467 2.70435 8.3 1.43333C8.1222 1.3 7.8778 1.3 7.7 1.43333C6.00531 2.70435 4.27561 3.33333 2.5 3.33333ZM7.16667 8.95953L10.1465 5.97978C10.3417 5.78452 10.6583 5.78452 10.8535 5.97978C11.0488 6.17504 11.0488 6.49162 10.8535 6.68686L7.5202 10.0202C7.32493 10.2155 7.0084 10.2155 6.81313 10.0202L5.14645 8.35353C4.95118 8.15826 4.95118 7.84173 5.14645 7.64646C5.34171 7.4512 5.65829 7.4512 5.85355 7.64646L7.16667 8.95953Z" fill="#3A3A3C"/>
</svg>
