<svg width="16" height="16" viewBox="0 0 16 16" fill="none" xmlns="http://www.w3.org/2000/svg">
<path d="M14.3334 4C14.3334 4.34189 14.0761 4.62367 13.7445 4.66218L13.6667 4.66667H13.1036L12.2827 13.0128C12.1903 13.9513 11.4011 14.6667 10.4581 14.6667H5.54203C4.59901 14.6667 3.80981 13.9513 3.71751 13.0128L2.89657 4.66667H2.33341C1.96523 4.66667 1.66675 4.36819 1.66675 4C1.66675 3.63181 1.96523 3.33333 2.33341 3.33333H5.66675C5.66675 2.04467 6.71141 1 8.00008 1C9.28875 1 10.3334 2.04467 10.3334 3.33333H13.6667C14.0349 3.33333 14.3334 3.63181 14.3334 4ZM9.50008 6.16667C9.24695 6.16667 9.03775 6.35477 9.00461 6.59882L9.00008 6.66667V11.3333L9.00461 11.4012C9.03775 11.6452 9.24695 11.8333 9.50008 11.8333C9.75321 11.8333 9.96241 11.6452 9.99555 11.4012L10.0001 11.3333V6.66667L9.99555 6.59882C9.96241 6.35477 9.75321 6.16667 9.50008 6.16667ZM6.50008 6.16667C6.24695 6.16667 6.03775 6.35477 6.00465 6.59882L6.00008 6.66667V11.3333L6.00465 11.4012C6.03775 11.6452 6.24695 11.8333 6.50008 11.8333C6.75321 11.8333 6.96241 11.6452 6.99555 11.4012L7.00008 11.3333V6.66667L6.99555 6.59882C6.96241 6.35477 6.75321 6.16667 6.50008 6.16667ZM8.00008 2.33333C7.44781 2.33333 7.00008 2.78105 7.00008 3.33333H9.00008C9.00008 2.78105 8.55235 2.33333 8.00008 2.33333Z" fill="white"/>
</svg>
