<svg width="56" height="56" viewBox="0 0 56 56" fill="none" xmlns="http://www.w3.org/2000/svg">
<circle opacity="0.03" cx="28" cy="28" r="28" fill="#34C759"/>
<circle opacity="0.03" cx="27.9996" cy="28.0001" r="22.4" fill="#34C759"/>
<path d="M27.9998 14.0015C30.3916 14.0015 32.4953 15.5151 33.2796 17.7344C33.5372 18.4635 33.155 19.2633 32.426 19.5209C31.749 19.7601 31.0111 19.4476 30.7028 18.8181L30.6395 18.6673C30.2478 17.5584 29.1955 16.8015 27.9998 16.8015C26.5245 16.8015 25.3157 17.9431 25.2089 19.3911L25.2012 19.6V22.3987L36.0498 22.4C37.7171 22.4 39.0816 23.6952 39.1925 25.3344L39.1998 25.55V38.8448C39.1998 40.5119 37.9045 41.8767 36.2654 41.9875L36.0498 41.9948H19.9498C18.2826 41.9948 16.9179 40.6995 16.8071 39.0604L16.7998 38.8448V25.55C16.7998 23.8828 18.095 22.5181 19.7341 22.4073L19.9498 22.4L22.4012 22.3987L22.4013 19.6C22.4013 16.508 24.9078 14.0015 27.9998 14.0015ZM27.9998 30.0993C26.841 30.0993 25.9018 31.0387 25.9018 32.1973C25.9018 33.3561 26.841 34.2955 27.9998 34.2955C29.1586 34.2955 30.0978 33.3561 30.0978 32.1973C30.0978 31.0387 29.1586 30.0993 27.9998 30.0993Z" fill="#34C759"/>
</svg>
