<svg width="16" height="16" viewBox="0 0 16 16" fill="none" xmlns="http://www.w3.org/2000/svg">
<path d="M8.00033 1.33398C9.13926 1.33398 10.1411 2.05476 10.5145 3.11159C10.6372 3.45875 10.4552 3.83962 10.1081 3.96228C9.78566 4.07618 9.43426 3.9274 9.28746 3.62762L9.25733 3.5558C9.07079 3.02778 8.56973 2.66732 8.00033 2.66732C7.29779 2.66732 6.72219 3.21095 6.67133 3.9005L6.66766 3.99996V5.33265L11.8337 5.33329C12.6276 5.33329 13.2774 5.95006 13.3302 6.73062L13.3337 6.83329V13.1642C13.3337 13.958 12.7169 14.6079 11.9363 14.6607L11.8337 14.6642H4.16699C3.37309 14.6642 2.72323 14.0474 2.67045 13.2668L2.66699 13.1642V6.83329C2.66699 6.03938 3.28377 5.38953 4.06429 5.33675L4.16699 5.33329L5.33433 5.33265L5.33435 3.99996C5.33435 2.52758 6.52795 1.33398 8.00033 1.33398ZM8.00033 8.99963C7.44853 8.99963 7.00126 9.44696 7.00126 9.99869C7.00126 10.5505 7.44853 10.9978 8.00033 10.9978C8.55212 10.9978 8.99939 10.5505 8.99939 9.99869C8.99939 9.44696 8.55212 8.99963 8.00033 8.99963Z" fill="white"/>
</svg>
