<svg width="24" height="24" viewBox="0 0 24 24" fill="none" xmlns="http://www.w3.org/2000/svg">
<path d="M23 11.9999C23 5.92476 18.0751 0.999895 12 0.999895C5.92486 0.999895 1 5.92476 1 11.9999C1 17.4903 5.02254 22.0411 10.2813 22.8663V15.1796H7.48828V11.9999H10.2813V9.57646C10.2813 6.81959 11.9235 5.29677 14.4361 5.29677C15.6396 5.29677 16.8984 5.51162 16.8984 5.51162V8.21865H15.5114C14.1449 8.21865 13.7188 9.06657 13.7188 9.93647V11.9999H16.7695L16.2818 15.1796H13.7188V22.8663C18.9775 22.0411 23 17.4903 23 11.9999Z" fill="#1877F2"/>
<path d="M16.2818 15.1797L16.7695 12H13.7187V9.93657C13.7187 9.06667 14.1449 8.21875 15.5114 8.21875H16.8984V5.51171C16.8984 5.51171 15.6396 5.29687 14.4361 5.29687C11.9235 5.29687 10.2812 6.81968 10.2812 9.57656V12H7.48828V15.1797H10.2812V22.8664C10.8413 22.9542 11.4153 23 12 23C12.5847 23 13.1587 22.9542 13.7187 22.8664V15.1797H16.2818Z" fill="white"/>
</svg>
