<svg width="24" height="24" viewBox="0 0 24 24" fill="none" xmlns="http://www.w3.org/2000/svg">
<path d="M15.3666 12.083C16.082 12.7893 16.4869 13.6448 16.7802 14.828L16.9072 15.3897L17.1359 16.5554C17.2498 17.1033 17.3378 17.4075 17.4609 17.6734C17.8451 18.5034 18.5216 19.3538 19.4996 20.218C19.8898 20.5627 19.9161 21.1472 19.5584 21.5232C19.2008 21.8993 18.5946 21.9246 18.2043 21.5799C17.0449 20.5554 16.2105 19.5064 15.7105 18.4264C15.5202 18.0155 15.4045 17.6252 15.2677 16.9731L14.999 15.6175L14.9826 15.5433C14.7519 14.4975 14.4665 13.8389 13.9953 13.3737C13.0846 12.4747 10.9838 12.7123 10.4216 13.5692C9.70368 14.6633 9.52056 16.5202 10.0906 18.392C10.5311 19.8381 11.1154 21.2612 11.8443 22.6619C12.0816 23.1179 11.8904 23.673 11.4174 23.9018C10.9442 24.1305 10.3683 23.9462 10.131 23.4902C9.35112 21.9918 8.72451 20.4656 8.25147 18.9124C7.53398 16.5564 7.77111 14.1523 8.80163 12.5816C10.0194 10.7254 13.5832 10.3224 15.3666 12.083ZM12.3438 14.9348C12.8727 14.9179 13.3158 15.3174 13.3335 15.8274C13.3992 17.733 14.0423 19.5753 15.1787 21.1287L15.4298 21.4571L15.8134 21.9374C16.1361 22.3417 16.0579 22.9217 15.6384 23.2329C15.2571 23.5159 14.7252 23.4792 14.3891 23.1664L14.2944 23.0643L13.9108 22.584C12.3734 20.6586 11.5015 18.317 11.4178 15.8887C11.4001 15.3788 11.8148 14.9518 12.3438 14.9348ZM7.60387 8.67453C10.3025 6.74862 13.8323 6.85316 16.2069 8.32432C17.3952 9.06056 18.295 9.91904 18.8933 10.9027C19.161 11.3429 19.0079 11.9088 18.5512 12.1669C18.0947 12.4248 17.5075 12.2772 17.2398 11.8372C16.8032 11.1193 16.1179 10.4654 15.1705 9.87851C13.4294 8.79979 10.7602 8.72076 8.74443 10.1593C6.65061 11.6536 5.76908 14.2132 6.0316 16.9114C6.17863 18.4226 6.65108 19.9502 7.45408 21.498C7.69082 21.9543 7.49897 22.5092 7.02557 22.7374C6.55218 22.9657 5.97649 22.7807 5.73976 22.3244C4.83366 20.5779 4.29311 18.83 4.12324 17.0838C3.80337 13.7962 4.90364 10.6016 7.60387 8.67453ZM19.334 13.9721C19.8627 13.9459 20.3132 14.3376 20.3403 14.8472C20.3801 15.59 20.5705 16.1974 20.9045 16.686C21.185 17.0963 21.4342 17.3332 21.6244 17.4246L21.7024 17.4549C22.2089 17.6026 22.4955 18.1182 22.3423 18.6066C22.1891 19.0949 21.6542 19.3711 21.1475 19.2234C20.4492 19.0199 19.8485 18.4992 19.3039 17.7025C18.7728 16.9255 18.4826 15.9999 18.4261 14.9421C18.3989 14.4326 18.8054 13.9983 19.334 13.9721ZM9.81152 4.6242C10.0288 5.08944 9.81357 5.63634 9.33093 5.84573C6.97944 6.86588 5.24924 8.31963 4.11263 10.2166C2.69011 12.5908 2.30639 15.3662 2.62488 17.7055C2.69374 18.2113 2.32416 18.6752 1.79935 18.7416C1.27456 18.808 0.793304 18.4516 0.724429 17.9458C0.355379 15.2353 0.794275 12.0607 2.45282 9.29263C3.79686 7.04943 5.83651 5.33567 8.54418 4.16097C9.02683 3.95157 9.59416 4.15897 9.81152 4.6242ZM12.8062 3.65475C15.1445 3.70094 17.4722 4.73662 19.7815 6.71719C22.111 8.71489 23.5147 11.4305 23.9912 14.8221C24.0623 15.3275 23.6946 15.7929 23.1701 15.8614C22.6455 15.9298 22.1628 15.5755 22.0917 15.0699C21.6745 12.0996 20.4802 9.78934 18.5075 8.09748C16.5148 6.3885 14.6038 5.53819 12.767 5.5019C12.2379 5.49144 11.8176 5.06947 11.8285 4.55939C11.8393 4.04931 12.2771 3.64429 12.8062 3.65475ZM4.02569 3.67248C4.37772 4.05347 4.34268 4.6374 3.94742 4.97672C3.6048 5.27084 3.24528 5.62193 2.86987 6.02983C2.51676 6.41352 2.15502 6.91158 1.78843 7.52336C1.5237 7.96516 0.937532 8.11644 0.4792 7.86126C0.0208685 7.60609 -0.136087 7.04109 0.12864 6.5993C0.556036 5.88605 0.990575 5.28777 1.43601 4.80377C1.85915 4.34399 2.27102 3.94178 2.67261 3.59703C3.06787 3.25771 3.67366 3.2915 4.02569 3.67248ZM12.4409 0.0193564C15.2428 0.145864 17.5895 0.884254 19.5069 2.31145C19.9259 2.62326 20.0032 3.20339 19.6797 3.60719C19.3563 4.011 18.7544 4.08557 18.3354 3.77375C16.7441 2.58932 14.7761 1.97437 12.3512 1.86488C9.91924 1.75508 7.92787 2.21478 6.32674 3.07075C5.83609 3.33304 5.28554 3.20179 5.00852 2.76705C4.73151 2.33232 4.85601 1.76154 5.32359 1.49643C7.28598 0.383779 9.64604 -0.106831 12.4409 0.0193564Z" fill="black"/>
</svg>
