<svg width="20" height="20" viewBox="0 0 20 20" fill="none" xmlns="http://www.w3.org/2000/svg">
<path d="M18.1501 1.8498C18.372 2.0717 18.3922 2.41891 18.2106 2.66359L18.1501 2.73369L14.788 6.09583C16.3897 7.22039 17.5867 8.89999 18.0841 10.8871C18.1679 11.2219 17.9644 11.5613 17.6296 11.6452C17.2948 11.7289 16.9553 11.5254 16.8715 11.1906C16.4303 9.428 15.3406 7.94964 13.888 6.99551L12.38 8.50366C12.9696 9.10491 13.3332 9.92866 13.3332 10.8372C13.3332 12.6782 11.8408 14.1706 9.99984 14.1706C9.09117 14.1706 8.26747 13.807 7.6662 13.2174L2.73345 18.1503C2.48937 18.3944 2.09364 18.3944 1.84956 18.1503C1.62767 17.9285 1.6075 17.5812 1.78905 17.3366L1.84956 17.2665L6.94418 12.1713L6.94317 12.1701L12.7342 6.3816L12.7332 6.38008L13.6776 5.43799L17.2663 1.8498C17.5103 1.60573 17.906 1.60573 18.1501 1.8498ZM9.99984 4.58341C10.8334 4.58341 11.6423 4.7068 12.4073 4.93758L11.3764 5.96774C10.9299 5.87951 10.4695 5.83341 9.99984 5.83341C6.73061 5.83341 3.90825 8.06696 3.12722 11.1944C3.04359 11.5292 2.7043 11.7329 2.3694 11.6493C2.03451 11.5657 1.83083 11.2264 1.91446 10.8915C2.83371 7.21068 6.15357 4.58341 9.99984 4.58341ZM9.83759 7.50781L6.66984 10.6751C6.75463 8.961 8.12714 7.58978 9.83759 7.50781Z" fill="#8E8E93"/>
</svg>
