<svg width="24" height="24" viewBox="0 0 24 24" fill="none" xmlns="http://www.w3.org/2000/svg">
<path d="M20.9992 11.8484L21 20.7181C21 21.1638 20.9536 21.3255 20.8664 21.4884C20.7793 21.6514 20.6514 21.7793 20.4884 21.8664C20.3255 21.9536 20.1638 22 19.7181 22H15.2819C14.8362 22 14.6745 21.9536 14.5116 21.8664C14.3486 21.7793 14.2207 21.6514 14.1336 21.4884C14.0464 21.3255 14 21.1638 14 20.7181V16.2819C14 15.8362 13.9536 15.6745 13.8664 15.5116C13.7793 15.3486 13.6514 15.2207 13.4884 15.1336C13.3255 15.0464 13.1638 15 12.7181 15H11.2819C10.8362 15 10.6745 15.0464 10.5116 15.1336C10.3486 15.2207 10.2207 15.3486 10.1336 15.5116C10.0464 15.6745 10 15.8362 10 16.2819V20.7181C10 21.1638 9.95359 21.3255 9.86643 21.4884C9.77928 21.6514 9.65139 21.7793 9.48842 21.8664C9.32546 21.9536 9.16382 22 8.71806 22H4.28194C3.83618 22 3.67454 21.9536 3.51158 21.8664C3.34861 21.7793 3.22072 21.6514 3.13357 21.4884C3.04641 21.3255 3 21.1638 3 20.7181V12.0465C3 11.2101 3.03626 10.9164 3.12103 10.5932C3.20581 10.2699 3.3391 9.9853 3.53316 9.71323L3.63288 9.58014C3.80691 9.36033 4.0367 9.13607 4.5722 8.68981L11.1575 3.20209C11.465 2.94581 11.5992 2.87956 11.7594 2.83598C11.9195 2.79239 12.0805 2.79239 12.2406 2.83598C12.4008 2.87956 12.535 2.94581 12.8425 3.20209L19.4278 8.68981C20.0704 9.22532 20.2728 9.44116 20.4668 9.71323C20.6609 9.9853 20.7942 10.2699 20.879 10.5932C20.9567 10.8895 20.9936 11.1609 20.9992 11.8484Z" fill="black"/>
</svg>
