<svg width="24" height="24" viewBox="0 0 24 24" fill="none" xmlns="http://www.w3.org/2000/svg">
<path d="M2 3C0.895431 3 0 3.89543 0 5V5.5H24V5C24 3.89543 23.1046 3 22 3H2Z" fill="black"/>
<path fill-rule="evenodd" clip-rule="evenodd" d="M0 7H24V19C24 20.1046 23.1046 21 22 21H2C0.89543 21 0 20.1046 0 19V7ZM3 10.75C3 10.3358 3.33579 10 3.75 10H20.25C20.6642 10 21 10.3358 21 10.75C21 11.1642 20.6642 11.5 20.25 11.5H3.75C3.33579 11.5 3 11.1642 3 10.75ZM3 13.75C3 13.3358 3.33579 13 3.75 13H20.25C20.6642 13 21 13.3358 21 13.75C21 14.1642 20.6642 14.5 20.25 14.5H3.75C3.33579 14.5 3 14.1642 3 13.75ZM3.75 16C3.33579 16 3 16.3358 3 16.75C3 17.1642 3.33579 17.5 3.75 17.5H11.25C11.6642 17.5 12 17.1642 12 16.75C12 16.3358 11.6642 16 11.25 16H3.75Z" fill="black"/>
</svg>
