<svg width="24" height="24" viewBox="0 0 24 24" fill="none" xmlns="http://www.w3.org/2000/svg">
<path d="M18.9932 6.00782C19.8988 6.58285 20.5 7.59621 20.5 8.75V15.25C20.5 18.1495 18.1495 20.5 15.25 20.5H8.75C7.59621 20.5 6.58285 19.8988 6.00612 18.9925L6.12828 18.9982L6.25 19H15.25C17.3211 19 19 17.3211 19 15.25V6.25C19 6.16872 18.9977 6.08798 18.9932 6.00782ZM10.9293 12.1491L11.0226 12.2272L16.4172 17.5404C15.9297 17.8322 15.3594 18 14.75 18H6.25C5.62893 18 5.04854 17.8258 4.55505 17.5236L9.97198 12.2254L10.0558 12.1546C10.2828 11.9893 10.5814 11.9674 10.8275 12.0884L10.9293 12.1491ZM14.75 3C16.5449 3 18 4.45507 18 6.25V14.75C18 15.3916 17.8141 15.9897 17.4932 16.4935L12.0751 11.1584L11.9468 11.0413C11.1153 10.3389 9.89489 10.3348 9.05887 11.0305L8.92322 11.153L3.49023 16.4673C3.17952 15.969 3 15.3805 3 14.75V6.25C3 4.45507 4.45507 3 6.25 3H14.75ZM14.0004 5.75116C13.3105 5.75116 12.7512 6.31048 12.7512 7.00045C12.7512 7.69041 13.3105 8.24974 14.0004 8.24974C14.6904 8.24974 15.2497 7.69041 15.2497 7.00045C15.2497 6.31048 14.6904 5.75116 14.0004 5.75116Z" fill="black"/>
</svg>
