<svg width="16" height="17" viewBox="0 0 16 17" fill="none" xmlns="http://www.w3.org/2000/svg">
<path d="M7.99973 1.83301C11.6822 1.83301 14.6674 4.81823 14.6674 8.50069C14.6674 12.1832 11.6822 15.1684 7.99973 15.1684C4.31726 15.1684 1.33203 12.1832 1.33203 8.50069C1.33203 4.81823 4.31726 1.83301 7.99973 1.83301ZM7.9972 7.33343C7.65533 7.33363 7.37366 7.59116 7.3354 7.92276L7.33093 8.00049L7.33333 11.6682L7.33786 11.746C7.3766 12.0775 7.6586 12.3347 8.00046 12.3344C8.34233 12.3342 8.624 12.0767 8.66226 11.7451L8.66666 11.6674L8.66426 7.99963L8.65973 7.92189C8.62106 7.59036 8.33906 7.33316 7.9972 7.33343ZM8 4.83369C7.53926 4.83369 7.16566 5.20724 7.16566 5.66804C7.16566 6.12884 7.53926 6.50239 8 6.50239C8.4608 6.50239 8.8344 6.12884 8.8344 5.66804C8.8344 5.20724 8.4608 4.83369 8 4.83369Z" fill="#007AFF"/>
</svg>
