<svg width="24" height="24" viewBox="0 0 24 24" fill="none" xmlns="http://www.w3.org/2000/svg">
<path d="M20.5183 2.00136H3.47582C3.08901 1.997 2.71626 2.14639 2.43953 2.4167C2.1628 2.68702 2.00472 3.05614 2 3.44297V20.5567C2.00456 20.9437 2.16255 21.3131 2.43927 21.5837C2.71599 21.8543 3.08882 22.004 3.47582 21.9999H20.5183C20.9061 22.0047 21.28 21.8555 21.5578 21.5849C21.8356 21.3143 21.9946 20.9445 22 20.5567V3.44174C21.9945 3.05414 21.8353 2.6846 21.5575 2.41429C21.2797 2.14398 20.9059 1.99502 20.5183 2.00013" fill="#0A66C2"/>
<path d="M18.9988 19H16.1001V14.4526C16.1001 13.3682 16.0808 11.9723 14.5925 11.9723C13.0828 11.9723 12.8518 13.1538 12.8518 14.3737V18.9997H9.9531V9.64842H12.7358V10.9264H12.7748C13.0533 10.4494 13.4557 10.057 13.9392 9.79098C14.4227 9.52498 14.9692 9.39532 15.5204 9.41582C18.4583 9.41582 19 11.3516 19 13.87L18.9988 19ZM6.68244 8.37016C6.34974 8.37022 6.02449 8.27146 5.74783 8.08635C5.47117 7.90124 5.25554 7.6381 5.12817 7.33021C5.0008 7.02233 4.96741 6.68352 5.03226 6.35664C5.09711 6.02975 5.25727 5.72947 5.49248 5.49376C5.72769 5.25806 6.02739 5.09752 6.35368 5.03244C6.67997 4.96736 7.01819 5.00067 7.32558 5.12815C7.63298 5.25564 7.89573 5.47157 8.08061 5.74865C8.2655 6.02573 8.36422 6.3515 8.36428 6.68478C8.36432 6.90607 8.32084 7.1252 8.23634 7.32966C8.15184 7.53411 8.02798 7.7199 7.87181 7.8764C7.71564 8.0329 7.53021 8.15706 7.32614 8.24178C7.12206 8.3265 6.90334 8.37012 6.68244 8.37016ZM8.13177 19H5.23008V9.64842H8.13177V19Z" fill="white"/>
</svg>
