<svg width="20" height="20" viewBox="0 0 20 20" fill="none" xmlns="http://www.w3.org/2000/svg">
<path d="M10.0002 1.66675C11.8411 1.66675 13.3335 3.15913 13.3335 5.00008V6.66675H15.4168C16.1072 6.66675 16.6668 7.22639 16.6668 7.91675V17.0834C16.6668 17.7737 16.1072 18.3334 15.4168 18.3334H4.5835C3.89314 18.3334 3.3335 17.7737 3.3335 17.0834V7.91675C3.3335 7.22639 3.89314 6.66675 4.5835 6.66675H6.66683V5.00008C6.66683 3.15913 8.15921 1.66675 10.0002 1.66675ZM10.0002 11.2501C9.30991 11.2501 8.75025 11.8097 8.75025 12.5001C8.75025 13.1904 9.30991 13.7501 10.0002 13.7501C10.6907 13.7501 11.2502 13.1904 11.2502 12.5001C11.2502 11.8097 10.6907 11.2501 10.0002 11.2501ZM10.0002 3.33341C9.07966 3.33341 8.3335 4.07961 8.3335 5.00008V6.66675H11.6668V5.00008C11.6668 4.07961 10.9207 3.33341 10.0002 3.33341Z" fill="#8E8E93"/>
</svg>
