<svg width="20" height="20" viewBox="0 0 20 20" fill="none" xmlns="http://www.w3.org/2000/svg">
<path d="M13.125 1.66675C14.1605 1.66675 15 2.50621 15 3.54175V16.4584C15 17.4939 14.1605 18.3334 13.125 18.3334H6.875C5.83947 18.3334 5 17.4939 5 16.4584V3.54175C5 2.50621 5.83947 1.66675 6.875 1.66675H13.125ZM11.0417 15.0001H8.95833C8.61317 15.0001 8.33333 15.2799 8.33333 15.6251C8.33333 15.9702 8.61317 16.2501 8.95833 16.2501H11.0417C11.3868 16.2501 11.6667 15.9702 11.6667 15.6251C11.6667 15.2799 11.3868 15.0001 11.0417 15.0001Z" fill="#8E8E93"/>
</svg>
