<svg width="24" height="24" viewBox="0 0 24 24" fill="none" xmlns="http://www.w3.org/2000/svg">
<path d="M9.09388 12.3683C7.50178 12.3683 6.21556 13.6545 6.23909 15.2309C6.25477 16.2427 6.81161 17.1211 7.63119 17.6112C7.35277 17.1838 7.18807 16.6779 7.18023 16.1329C7.1567 14.5565 8.44292 13.2702 10.035 13.2702C10.3487 13.2702 10.6507 13.3212 10.933 13.4114V10.2547C10.6389 10.2115 10.337 10.188 10.035 10.188C10.0193 10.188 10.0076 10.188 9.99188 10.188V12.5095C9.70954 12.4193 9.40759 12.3683 9.09388 12.3683Z" fill="#F00044"/>
<path d="M15.9759 2.90192H15.9524H15.1367C15.372 4.08226 16.0347 5.10967 16.9602 5.80769C16.3524 5.0038 15.9837 3.99991 15.9759 2.90192Z" fill="#F00044"/>
<path d="M20.7756 7.70572C20.4659 7.70572 20.1678 7.67435 19.8737 7.61945V9.8821C18.8071 9.8821 17.7718 9.67427 16.7993 9.2586C16.1719 8.99194 15.5876 8.65078 15.0504 8.23903L15.0661 15.2152C15.0582 16.7838 14.4386 18.2543 13.3171 19.3641C12.4034 20.266 11.2466 20.8425 9.99175 21.0268C9.69764 21.0699 9.39569 21.0934 9.09374 21.0934C7.75262 21.0934 6.47423 20.6582 5.43506 19.8543C5.5527 19.9954 5.67819 20.1327 5.81544 20.266C6.9448 21.3797 8.44279 21.9954 10.0388 21.9954C10.3408 21.9954 10.6427 21.9718 10.9368 21.9287C12.1917 21.7444 13.3485 21.1679 14.2622 20.266C15.3837 19.1563 16.0033 17.6857 16.0111 16.1172L15.9523 9.14096C16.4856 9.55271 17.0699 9.89779 17.7013 10.1605C18.6777 10.5723 19.7129 10.784 20.7756 10.784" fill="#F00044"/>
<path d="M5.80385 11.9251C6.92145 10.8154 8.40767 10.1997 9.99193 10.1879V9.35267C9.69782 9.30954 9.39587 9.28601 9.09392 9.28601C7.49398 9.28601 5.99208 9.90167 4.86271 11.0232C3.75295 12.1251 3.11768 13.6309 3.1216 15.1956C3.1216 16.772 3.74511 18.2504 4.87055 19.368C5.05094 19.5444 5.23524 19.7091 5.43132 19.8582C4.54507 18.8033 4.06274 17.4857 4.05882 16.0975C4.06274 14.5329 4.69409 13.027 5.80385 11.9251Z" fill="#08FFF9"/>
<path d="M19.8736 7.61937V6.78019H19.8657C18.7756 6.78019 17.7717 6.41942 16.9639 5.80768C17.6658 6.73313 18.6932 7.39193 19.8736 7.61937Z" fill="#08FFF9"/>
<path d="M9.87391 18.9092C10.2464 18.9288 10.6033 18.8778 10.9327 18.7719C12.0699 18.3994 12.8895 17.3406 12.8895 16.0936L12.8934 11.4271V2.90193H15.1364C15.0776 2.60782 15.0462 2.30979 15.0423 2H11.9523V10.5212L11.9483 15.1877C11.9483 16.4347 11.1288 17.4935 9.99155 17.8661C9.66215 17.9759 9.3053 18.0268 8.93277 18.0033C8.45828 17.9759 8.01516 17.8347 7.63086 17.6072C8.11319 18.3523 8.93669 18.8582 9.87391 18.9092Z" fill="#08FFF9"/>
<path d="M9.9917 21.0267C11.2466 20.8424 12.4034 20.266 13.3171 19.364C14.4386 18.2543 15.0582 16.7837 15.066 15.2152L15.0503 8.23897C15.5836 8.65072 16.1679 8.9958 16.7993 9.25854C17.7757 9.67028 18.811 9.88204 19.8737 9.88204V7.61938C18.6933 7.39194 17.6659 6.73314 16.964 5.80769C16.0385 5.10967 15.3719 4.08226 15.1405 2.90192H12.8936V11.4232L12.8896 16.0896C12.8896 17.3367 12.0701 18.3954 10.9328 18.768C10.6034 18.8778 10.2466 18.9288 9.87406 18.9052C8.93292 18.8542 8.11334 18.3484 7.63101 17.6072C6.81143 17.121 6.25459 16.2387 6.23891 15.2269C6.21538 13.6505 7.5016 12.3643 9.0937 12.3643C9.40741 12.3643 9.70936 12.4153 9.9917 12.5055V10.184C8.40745 10.1958 6.92123 10.8114 5.80363 11.9212C4.69387 13.0231 4.0586 14.5289 4.06252 16.0896C4.06252 17.4778 4.54485 18.7954 5.43501 19.8503C6.47811 20.6542 7.75257 21.0895 9.0937 21.0895C9.39565 21.0934 9.6976 21.0698 9.9917 21.0267Z" fill="black"/>
</svg>
