<svg width="24" height="24" viewBox="0 0 24 24" fill="none" xmlns="http://www.w3.org/2000/svg">
<path d="M19.9242 10.383C20.0792 10.009 19.9932 9.579 19.7072 9.293L15.4142 5C15.0237 4.60954 14.3907 4.60954 14.0002 5C13.6097 5.39047 13.6097 6.02354 14.0002 6.414L16.5862 9H5.00019C4.4479 9 4.00019 9.44772 4.00019 10C4.00019 10.5523 4.4479 11 5.00019 11H19.0002C19.4042 11 19.7702 10.756 19.9242 10.383ZM4.07619 13.617C3.92119 13.991 4.00719 14.421 4.29319 14.707L8.58619 19C8.97665 19.3905 9.60972 19.3905 10.0002 19C10.3907 18.6095 10.3907 17.9765 10.0002 17.586L7.41419 15H19.0002C19.5525 15 20.0002 14.5523 20.0002 14C20.0002 13.4477 19.5525 13 19.0002 13H5.00019C4.59619 13 4.23019 13.243 4.07619 13.617Z" fill="black"/>
</svg>
