<svg width="20" height="20" viewBox="0 0 20 20" fill="none" xmlns="http://www.w3.org/2000/svg">
<path d="M9.99984 1.66675C14.6022 1.66675 18.3332 5.39771 18.3332 10.0001C18.3332 14.6024 14.6022 18.3334 9.99984 18.3334C5.39746 18.3334 1.6665 14.6024 1.6665 10.0001C1.6665 5.39771 5.39746 1.66675 9.99984 1.66675ZM12.9418 7.05814L12.8717 6.99762C12.6542 6.83625 12.3557 6.83426 12.1362 6.99165L12.0579 7.05814L9.99984 9.11592L7.94178 7.05814L7.87168 6.99762C7.65419 6.83625 7.35568 6.83426 7.13619 6.99165L7.0579 7.05814L6.99738 7.12824C6.836 7.34573 6.83401 7.64424 6.9914 7.86373L7.0579 7.94202L9.11567 10.0001L7.0579 12.0582L6.99738 12.1282C6.836 12.3457 6.83401 12.6442 6.9914 12.8637L7.0579 12.942L7.128 13.0025C7.34549 13.1639 7.644 13.1659 7.86349 13.0085L7.94178 12.942L9.99984 10.8842L12.0579 12.942L12.128 13.0025C12.3455 13.1639 12.644 13.1659 12.8635 13.0085L12.9418 12.942L13.0023 12.8719C13.1637 12.6544 13.1657 12.3559 13.0083 12.1364L12.9418 12.0582L10.884 10.0001L12.9418 7.94202L13.0023 7.87192C13.1637 7.65443 13.1657 7.35592 13.0083 7.13643L12.9418 7.05814L12.8717 6.99762L12.9418 7.05814Z" fill="#636366"/>
</svg>
