<svg width="24" height="24" viewBox="0 0 24 24" fill="none" xmlns="http://www.w3.org/2000/svg">
<path d="M23.5057 5.81647C23.2289 4.71529 22.4184 3.84706 21.3904 3.55059C19.5123 3 11.9999 3 11.9999 3C11.9999 3 4.48763 3 2.60954 3.52941C1.60131 3.82588 0.771002 4.71529 0.494232 5.81647C0 7.82824 0 12 0 12C0 12 0 16.1929 0.494232 18.1835C0.771002 19.2847 1.58154 20.1529 2.60954 20.4494C4.50739 21 11.9999 21 11.9999 21C11.9999 21 19.5123 21 21.3904 20.4706C22.4184 20.1741 23.2289 19.3059 23.5057 18.2047C23.9999 16.1929 23.9999 12.0212 23.9999 12.0212C23.9999 12.0212 24.0197 7.82824 23.5057 5.81647Z" fill="#FF0000"/>
<path d="M16 12L9 8V16L16 12Z" fill="white"/>
</svg>
