<svg width="24" height="24" viewBox="0 0 24 24" fill="none" xmlns="http://www.w3.org/2000/svg">
<rect x="2" y="2" width="20" height="20" rx="3" fill="white"/>
<path d="M21.9765 16.3137C21.8979 16.3182 21.8674 16.387 21.8238 16.4329C20.9768 17.3267 19.9772 18.0418 18.8814 18.5506C16.1922 19.7883 13.4595 19.88 10.6917 18.8807C10.4516 18.789 10.1897 18.7753 9.94081 18.844C9.57408 18.9403 9.21177 19.0549 8.84946 19.1694C7.79113 19.5096 6.71568 19.6658 5.61476 19.4469C5.60311 19.4447 5.56045 19.4352 5.55153 19.4304C5.48925 19.3968 5.45583 19.3562 5.5361 19.284C5.59725 19.2428 5.65832 19.1969 5.71946 19.1602C6.29134 18.7706 6.82834 18.3443 7.18189 17.7163C7.47438 17.1938 7.42632 16.8912 7.05967 16.5016C4.99476 14.3288 4.08243 11.7251 4.53643 8.65847C4.79388 6.92122 5.55353 5.42688 6.64923 4.12509C7.31279 3.33662 8.10298 2.69943 8.96734 2.16771C9.01539 2.13565 9.09397 2.12645 9.10265 2.04393C9.08955 1.99812 9.0546 2.01187 9.02841 2.01187C7.55722 2.01187 6.08604 1.97981 4.61927 2.02107C3.21799 2.06233 2 3.20364 2 4.84015C2.00876 9.62572 2 14.4067 2 19.1878C2 20.6683 3.07826 21.9106 4.48829 21.9702C5.68009 22.016 17.7813 21.9977 19.3528 21.9885H19.3747C20.8328 21.9748 22.0027 20.728 21.9939 19.1969V16.5154C21.9939 16.4466 22.0158 16.3779 21.9765 16.3137Z" fill="#1777FB"/>
<path d="M7.68834 7.79671C7.52241 7.83797 7.39152 7.98005 7.35222 8.15428C7.29549 8.41093 7.44824 8.67223 7.6971 8.7318C7.80188 8.75475 7.911 8.7685 8.02011 8.7685C8.49162 8.77306 8.96739 8.7685 9.4389 8.77306C9.49129 8.77761 9.55244 8.741 9.59607 8.81887C9.55678 8.86932 9.51748 8.92433 9.47819 8.97934C8.80154 9.87773 8.12489 10.7808 7.45258 11.6792C7.28666 11.9038 7.19939 12.1514 7.32161 12.4264C7.44383 12.7015 7.69268 12.7565 7.94587 12.7702C8.15101 12.784 8.35189 12.7748 8.55703 12.7748C9.26421 12.7748 9.96706 12.7793 10.6743 12.7702C11.0497 12.7657 11.2505 12.5227 11.2112 12.1606C11.1763 11.8718 10.9886 11.7205 10.6437 11.7159C10.0282 11.7114 9.40828 11.7159 8.74907 11.7159C8.8189 11.6151 8.86261 11.5555 8.91058 11.4959C9.48245 10.7396 10.0543 9.97864 10.6262 9.21314C10.792 8.98854 10.958 8.76394 11.0627 8.50265C11.1806 8.20009 11.054 7.91137 10.7572 7.80591C10.6218 7.76921 10.4865 7.7509 10.3468 7.75545C9.56971 7.7509 8.78836 7.7509 8.01127 7.75545C7.90224 7.75545 7.79304 7.76921 7.68834 7.79671Z" fill="#1777FB"/>
<path d="M18.8638 12.8986C19.9072 12.7886 20.5838 11.968 20.5489 10.8083C20.5139 9.66236 19.702 8.87854 18.5888 8.91516C17.5411 8.94722 16.8034 9.82731 16.8383 11.0054C16.8209 12.1514 17.7245 13.0178 18.8638 12.8986ZM17.934 10.8954C17.934 10.3224 18.2657 9.94653 18.7372 9.97404C18.9423 9.97859 19.1345 10.0886 19.2567 10.2628C19.5055 10.6112 19.5055 11.198 19.2523 11.5463C19.213 11.5921 19.1738 11.638 19.1257 11.6747C18.8114 11.9313 18.3617 11.8672 18.1217 11.5371C17.9908 11.3492 17.9253 11.1246 17.934 10.8954Z" fill="#1777FB"/>
<path d="M12.3637 12.8161C12.8483 12.9811 13.2979 12.9215 13.6951 12.5823C13.7999 12.4952 13.8304 12.5135 13.9047 12.6098C14.0488 12.8069 14.2976 12.8756 14.5158 12.7886C14.7297 12.7198 14.8782 12.509 14.8782 12.2706C14.8869 11.3538 14.8913 10.437 14.8782 9.52025C14.8738 9.15356 14.5507 8.91976 14.2059 8.99308C14.0269 9.02978 13.9177 9.16267 13.8129 9.30476C13.2673 8.8051 12.6648 8.77303 12.0711 9.14428C11.3552 9.58438 11.0889 10.2994 11.1806 11.1383C11.2679 11.913 11.5866 12.5502 12.3637 12.8161ZM13.0796 9.97401C13.2848 9.97857 13.4769 10.084 13.5991 10.2628C13.8435 10.6112 13.8435 11.1842 13.5991 11.5326C13.5555 11.5921 13.5074 11.6426 13.455 11.6839C13.1364 11.9314 12.6867 11.8626 12.451 11.5326C12.3374 11.3721 12.2764 11.1796 12.2676 10.9779C12.2633 10.3316 12.5995 9.94195 13.0796 9.97401Z" fill="#1777FB"/>
<path d="M15.3583 12.2201C15.3583 12.5089 15.5242 12.7519 15.7425 12.8114C15.7949 12.8252 15.8516 12.8297 15.904 12.8297C16.2139 12.8205 16.4584 12.5501 16.454 12.2247C16.4583 11.5142 16.454 10.8037 16.454 10.0932C16.454 9.37814 16.4583 8.65845 16.454 7.94339C16.454 7.57671 16.2313 7.34747 15.8996 7.35211C15.5765 7.35211 15.3626 7.58127 15.3582 7.93428C15.3539 8.14968 15.3582 8.36062 15.3582 8.57602L15.3583 12.2201Z" fill="#1777FB"/>
</svg>
